{"glyphs":{"0":{"ha":971,"x_min":71,"x_max":900,"o":"m 330 602 l 330 408 q 357 246 330 280 q 464 212 383 212 l 507 212 q 613 244 587 212 q 639 408 639 277 l 639 602 q 613 765 639 733 q 507 798 587 798 l 464 798 q 357 764 383 798 q 330 602 330 730 m 71 610 q 150 931 71 840 q 425 1022 229 1022 l 546 1022 q 821 931 742 1022 q 900 610 900 840 l 900 400 q 821 79 900 170 q 546 -12 742 -12 l 425 -12 q 150 78 229 -12 q 71 400 71 169 l 71 610 z "},"1":{"ha":971,"x_min":115,"x_max":760,"o":"m 115 711 l 461 1010 l 760 1010 l 760 0 l 505 0 l 505 751 l 268 541 l 115 711 z "},"2":{"ha":971,"x_min":90,"x_max":884,"o":"m 90 0 l 90 240 q 131 414 90 349 q 254 504 172 480 l 549 593 q 611 625 595 607 q 627 679 627 643 l 627 720 q 601 797 627 775 q 510 818 575 818 l 465 818 q 375 796 401 818 q 350 720 350 774 l 350 663 l 100 663 l 100 753 q 181 952 100 883 q 415 1022 262 1022 l 562 1022 q 798 952 712 1022 q 884 760 884 882 l 884 676 q 838 497 884 565 q 699 404 791 429 l 412 328 q 366 305 378 318 q 354 264 354 292 l 354 224 l 876 224 l 876 0 l 90 0 z "},"3":{"ha":971,"x_min":79,"x_max":882,"o":"m 79 340 l 335 340 l 335 292 q 362 216 335 239 q 454 193 390 193 l 501 193 q 590 216 562 193 q 619 285 619 238 l 619 322 q 591 393 619 371 q 501 415 564 415 l 418 415 l 418 618 l 498 618 q 580 640 553 618 q 607 707 607 662 l 607 733 q 581 798 607 777 q 500 819 555 819 l 457 819 q 374 796 399 819 q 349 721 349 773 l 349 686 l 96 686 l 96 754 q 181 953 96 884 q 427 1022 267 1022 l 536 1022 q 783 958 699 1022 q 867 768 867 893 l 867 703 q 829 585 867 630 q 715 524 791 540 q 842 451 802 500 q 882 318 882 401 l 882 243 q 796 55 882 122 q 555 -12 710 -12 l 403 -12 q 165 57 252 -12 q 79 249 79 127 l 79 340 z "},"4":{"ha":971,"x_min":49,"x_max":928,"o":"m 272 396 l 555 396 l 555 799 l 272 396 m 49 193 l 49 458 l 444 1010 l 808 1010 l 808 396 l 928 396 l 928 193 l 808 193 l 808 0 l 555 0 l 555 193 l 49 193 z "},"5":{"ha":971,"x_min":94,"x_max":882,"o":"m 94 297 l 346 297 l 346 279 q 369 212 346 230 q 467 195 393 195 l 504 195 q 603 214 580 195 q 625 298 625 234 l 625 399 q 605 484 625 465 q 504 503 584 503 l 467 503 q 377 491 400 503 q 351 450 354 479 l 111 450 l 111 1010 l 835 1010 l 835 810 l 353 810 l 353 632 q 423 685 380 667 q 522 703 465 703 l 581 703 q 810 635 739 703 q 882 416 882 567 l 882 272 q 803 51 882 115 q 528 -12 725 -12 l 433 -12 q 183 55 271 -12 q 94 243 94 121 l 94 297 z "},"6":{"ha":971,"x_min":97,"x_max":889,"o":"m 468 191 l 522 191 q 615 205 595 191 q 636 268 636 219 l 636 343 q 617 405 636 391 q 522 419 597 419 l 468 419 q 373 404 393 419 q 353 343 353 389 l 353 268 q 374 206 353 221 q 468 191 395 191 m 865 733 l 612 733 l 612 746 q 594 804 612 789 q 522 819 576 819 l 456 819 q 371 803 390 819 q 353 732 353 787 l 353 555 q 425 604 384 588 q 518 619 466 619 l 616 619 q 823 553 756 619 q 889 346 889 486 l 889 253 q 805 54 889 120 q 553 -12 721 -12 l 433 -12 q 172 79 247 -12 q 97 400 97 170 l 97 610 q 172 931 97 840 q 433 1022 247 1022 l 553 1022 q 786 964 707 1022 q 865 794 865 907 l 865 733 z "},"7":{"ha":971,"x_min":96,"x_max":861,"o":"m 96 807 l 96 1010 l 861 1010 l 861 810 l 515 0 l 249 0 l 586 807 l 96 807 z "},"8":{"ha":971,"x_min":100,"x_max":884,"o":"m 427 -12 q 186 56 273 -12 q 100 243 100 123 l 100 318 q 141 451 100 401 q 267 524 182 502 q 153 582 191 541 q 115 690 115 623 l 115 754 q 197 956 115 890 q 446 1022 278 1022 l 538 1022 q 786 956 704 1022 q 868 754 868 890 l 868 690 q 830 584 868 626 q 715 524 791 543 q 843 451 803 500 q 884 318 884 401 l 884 243 q 797 55 884 122 q 557 -12 711 -12 l 427 -12 m 503 821 l 479 821 q 397 798 425 821 q 370 732 370 776 l 370 705 q 397 638 370 661 q 478 615 425 615 l 504 615 q 586 638 557 615 q 614 705 614 662 l 614 732 q 586 798 614 776 q 503 821 557 821 m 507 193 q 596 217 566 193 q 627 286 627 240 l 627 325 q 596 396 627 373 q 503 419 566 419 l 475 419 q 386 395 416 419 q 355 325 355 372 l 355 286 q 386 216 355 239 q 478 193 417 193 l 507 193 z "},"9":{"ha":971,"x_min":90,"x_max":882,"o":"m 513 819 l 457 819 q 364 805 385 819 q 343 742 343 790 l 343 667 q 362 604 343 618 q 457 590 382 590 l 513 590 q 607 605 587 590 q 627 667 627 620 l 627 742 q 606 804 627 789 q 513 819 585 819 m 114 277 l 367 277 l 367 264 q 385 205 367 220 q 457 191 403 191 l 524 191 q 608 207 589 191 q 627 278 627 222 l 627 454 q 554 406 595 422 q 461 390 513 390 l 363 390 q 157 457 223 390 q 90 664 90 524 l 90 755 q 174 956 90 889 q 427 1022 258 1022 l 546 1022 q 807 931 732 1022 q 882 610 882 841 l 882 400 q 807 79 882 170 q 546 -12 732 -12 l 427 -12 q 193 45 272 -12 q 114 214 114 102 l 114 277 z "},"":{"ha":833,"x_min":69,"x_max":764,"o":"m 69 -245 l 69 979 l 764 979 l 764 -245 l 69 -245 m 147 -168 l 686 -168 l 686 901 l 147 901 l 147 -168 z "},"Ĉ":{"ha":833,"x_min":69,"x_max":764,"o":"m 69 -245 l 69 979 l 764 979 l 764 -245 l 69 -245 m 147 -168 l 686 -168 l 686 901 l 147 901 l 147 -168 z "},"ĉ":{"ha":833,"x_min":69,"x_max":764,"o":"m 69 -245 l 69 979 l 764 979 l 764 -245 l 69 -245 m 147 -168 l 686 -168 l 686 901 l 147 901 l 147 -168 z "},"Ċ":{"ha":833,"x_min":69,"x_max":764,"o":"m 69 -245 l 69 979 l 764 979 l 764 -245 l 69 -245 m 147 -168 l 686 -168 l 686 901 l 147 901 l 147 -168 z "},"ċ":{"ha":833,"x_min":69,"x_max":764,"o":"m 69 -245 l 69 979 l 764 979 l 764 -245 l 69 -245 m 147 -168 l 686 -168 l 686 901 l 147 901 l 147 -168 z "},"Ď":{"ha":833,"x_min":69,"x_max":764,"o":"m 69 -245 l 69 979 l 764 979 l 764 -245 l 69 -245 m 147 -168 l 686 -168 l 686 901 l 147 901 l 147 -168 z "},"ď":{"ha":833,"x_min":69,"x_max":764,"o":"m 69 -245 l 69 979 l 764 979 l 764 -245 l 69 -245 m 147 -168 l 686 -168 l 686 901 l 147 901 l 147 -168 z "},"Đ":{"ha":833,"x_min":69,"x_max":764,"o":"m 69 -245 l 69 979 l 764 979 l 764 -245 l 69 -245 m 147 -168 l 686 -168 l 686 901 l 147 901 l 147 -168 z "},"Ź":{"ha":833,"x_min":69,"x_max":764,"o":"m 69 -245 l 69 979 l 764 979 l 764 -245 l 69 -245 m 147 -168 l 686 -168 l 686 901 l 147 901 l 147 -168 z "},"ź":{"ha":833,"x_min":69,"x_max":764,"o":"m 69 -245 l 69 979 l 764 979 l 764 -245 l 69 -245 m 147 -168 l 686 -168 l 686 901 l 147 901 l 147 -168 z "},"Ż":{"ha":833,"x_min":69,"x_max":764,"o":"m 69 -245 l 69 979 l 764 979 l 764 -245 l 69 -245 m 147 -168 l 686 -168 l 686 901 l 147 901 l 147 -168 z "},"ż":{"ha":833,"x_min":69,"x_max":764,"o":"m 69 -245 l 69 979 l 764 979 l 764 -245 l 69 -245 m 147 -168 l 686 -168 l 686 901 l 147 901 l 147 -168 z "},"―":{"ha":833,"x_min":69,"x_max":764,"o":"m 69 -245 l 69 979 l 764 979 l 764 -245 l 69 -245 m 147 -168 l 686 -168 l 686 901 l 147 901 l 147 -168 z "},"‖":{"ha":833,"x_min":69,"x_max":764,"o":"m 69 -245 l 69 979 l 764 979 l 764 -245 l 69 -245 m 147 -168 l 686 -168 l 686 901 l 147 901 l 147 -168 z "},"‗":{"ha":833,"x_min":69,"x_max":764,"o":"m 69 -245 l 69 979 l 764 979 l 764 -245 l 69 -245 m 147 -168 l 686 -168 l 686 901 l 147 901 l 147 -168 z "},"‛":{"ha":833,"x_min":69,"x_max":764,"o":"m 69 -245 l 69 979 l 764 979 l 764 -245 l 69 -245 m 147 -168 l 686 -168 l 686 901 l 147 901 l 147 -168 z "},"‟":{"ha":833,"x_min":69,"x_max":764,"o":"m 69 -245 l 69 979 l 764 979 l 764 -245 l 69 -245 m 147 -168 l 686 -168 l 686 901 l 147 901 l 147 -168 z "},"‣":{"ha":833,"x_min":69,"x_max":764,"o":"m 69 -245 l 69 979 l 764 979 l 764 -245 l 69 -245 m 147 -168 l 686 -168 l 686 901 l 147 901 l 147 -168 z "},"․":{"ha":833,"x_min":69,"x_max":764,"o":"m 69 -245 l 69 979 l 764 979 l 764 -245 l 69 -245 m 147 -168 l 686 -168 l 686 901 l 147 901 l 147 -168 z "},"‥":{"ha":833,"x_min":69,"x_max":764,"o":"m 69 -245 l 69 979 l 764 979 l 764 -245 l 69 -245 m 147 -168 l 686 -168 l 686 901 l 147 901 l 147 -168 z "},"∃":{"ha":833,"x_min":69,"x_max":764,"o":"m 69 -245 l 69 979 l 764 979 l 764 -245 l 69 -245 m 147 -168 l 686 -168 l 686 901 l 147 901 l 147 -168 z "},"∄":{"ha":833,"x_min":69,"x_max":764,"o":"m 69 -245 l 69 979 l 764 979 l 764 -245 l 69 -245 m 147 -168 l 686 -168 l 686 901 l 147 901 l 147 -168 z "},"∅":{"ha":833,"x_min":69,"x_max":764,"o":"m 69 -245 l 69 979 l 764 979 l 764 -245 l 69 -245 m 147 -168 l 686 -168 l 686 901 l 147 901 l 147 -168 z "},"∐":{"ha":833,"x_min":69,"x_max":764,"o":"m 69 -245 l 69 979 l 764 979 l 764 -245 l 69 -245 m 147 -168 l 686 -168 l 686 901 l 147 901 l 147 -168 z "},"∓":{"ha":833,"x_min":69,"x_max":764,"o":"m 69 -245 l 69 979 l 764 979 l 764 -245 l 69 -245 m 147 -168 l 686 -168 l 686 901 l 147 901 l 147 -168 z "},"∔":{"ha":833,"x_min":69,"x_max":764,"o":"m 69 -245 l 69 979 l 764 979 l 764 -245 l 69 -245 m 147 -168 l 686 -168 l 686 901 l 147 901 l 147 -168 z "},"∖":{"ha":833,"x_min":69,"x_max":764,"o":"m 69 -245 l 69 979 l 764 979 l 764 -245 l 69 -245 m 147 -168 l 686 -168 l 686 901 l 147 901 l 147 -168 z "},"∗":{"ha":833,"x_min":69,"x_max":764,"o":"m 69 -245 l 69 979 l 764 979 l 764 -245 l 69 -245 m 147 -168 l 686 -168 l 686 901 l 147 901 l 147 -168 z "},"∘":{"ha":833,"x_min":69,"x_max":764,"o":"m 69 -245 l 69 979 l 764 979 l 764 -245 l 69 -245 m 147 -168 l 686 -168 l 686 901 l 147 901 l 147 -168 z "},"∛":{"ha":833,"x_min":69,"x_max":764,"o":"m 69 -245 l 69 979 l 764 979 l 764 -245 l 69 -245 m 147 -168 l 686 -168 l 686 901 l 147 901 l 147 -168 z "},"∜":{"ha":833,"x_min":69,"x_max":764,"o":"m 69 -245 l 69 979 l 764 979 l 764 -245 l 69 -245 m 147 -168 l 686 -168 l 686 901 l 147 901 l 147 -168 z "},"∝":{"ha":833,"x_min":69,"x_max":764,"o":"m 69 -245 l 69 979 l 764 979 l 764 -245 l 69 -245 m 147 -168 l 686 -168 l 686 901 l 147 901 l 147 -168 z "},"≡":{"ha":833,"x_min":69,"x_max":764,"o":"m 69 -245 l 69 979 l 764 979 l 764 -245 l 69 -245 m 147 -168 l 686 -168 l 686 901 l 147 901 l 147 -168 z "},"≢":{"ha":833,"x_min":69,"x_max":764,"o":"m 69 -245 l 69 979 l 764 979 l 764 -245 l 69 -245 m 147 -168 l 686 -168 l 686 901 l 147 901 l 147 -168 z "},"≣":{"ha":833,"x_min":69,"x_max":764,"o":"m 69 -245 l 69 979 l 764 979 l 764 -245 l 69 -245 m 147 -168 l 686 -168 l 686 901 l 147 901 l 147 -168 z "}," ":{"ha":486,"x_min":0,"x_max":0,"o":""},"!":{"ha":486,"x_min":132,"x_max":354,"o":"m 132 401 l 132 1010 l 354 1010 l 354 401 l 132 401 m 132 0 l 132 241 l 354 241 l 354 0 l 132 0 z "},"\"":{"ha":460,"x_min":54,"x_max":406,"o":"m 275 975 l 406 975 l 406 596 l 275 596 l 275 975 m 54 975 l 184 975 l 184 596 l 54 596 l 54 975 z "},"#":{"ha":1068,"x_min":31,"x_max":1038,"o":"m 481 575 l 421 410 l 591 410 l 650 575 l 481 575 m 481 993 l 631 993 l 532 711 l 696 711 l 796 993 l 946 993 l 846 711 l 1038 711 l 987 575 l 798 575 l 741 411 l 937 411 l 889 275 l 692 275 l 591 -7 l 441 -7 l 542 275 l 376 275 l 275 -7 l 126 -7 l 225 275 l 31 275 l 82 411 l 273 411 l 332 575 l 129 575 l 179 711 l 380 711 l 481 993 z "},"$":{"ha":971,"x_min":79,"x_max":892,"o":"m 440 -96 l 440 0 l 404 0 q 161 57 243 0 q 79 227 79 114 l 79 310 l 314 310 l 314 306 q 339 229 314 251 q 427 207 363 207 l 440 207 l 440 412 q 165 486 245 422 q 86 693 86 549 l 86 743 q 160 946 86 884 q 404 1008 235 1008 l 440 1008 l 440 1086 l 517 1086 l 517 1008 l 561 1008 q 781 952 703 1008 q 860 794 860 896 l 860 736 l 623 736 q 601 791 623 774 q 530 807 580 807 l 517 807 l 517 614 q 807 540 722 599 q 892 355 892 481 l 892 271 q 818 74 892 146 q 615 0 743 1 l 517 0 l 517 -96 l 440 -96 m 517 401 l 517 207 l 529 207 q 619 222 595 207 q 643 278 643 238 l 643 314 q 616 376 643 357 q 517 401 590 395 m 440 624 l 440 807 l 427 807 q 354 791 377 807 q 332 741 332 775 l 332 699 q 358 647 332 665 q 440 624 384 629 z "},"%":{"ha":1524,"x_min":60,"x_max":1458,"o":"m 309 493 l 330 493 q 380 512 368 493 q 393 612 393 532 l 393 749 q 380 848 393 827 q 330 868 368 868 l 309 868 q 258 848 271 868 q 245 749 245 828 l 245 612 q 258 513 245 533 q 309 493 271 493 m 286 338 q 110 388 159 338 q 60 567 60 438 l 60 793 q 110 971 60 921 q 286 1022 160 1022 l 351 1022 q 528 972 477 1022 q 578 793 578 922 l 578 567 q 528 388 578 437 q 351 338 478 338 l 286 338 m 412 -12 l 994 1022 l 1107 1022 l 526 -12 l 412 -12 m 1189 143 l 1211 143 q 1261 162 1249 143 q 1274 261 1274 181 l 1274 399 q 1261 498 1274 477 q 1211 518 1248 518 l 1189 518 q 1139 498 1152 518 q 1126 399 1126 477 l 1126 261 q 1139 163 1126 182 q 1189 143 1151 143 m 1166 -12 q 990 38 1040 -12 q 940 216 940 88 l 940 443 q 990 622 940 571 q 1166 672 1040 672 l 1232 672 q 1408 622 1358 672 q 1458 443 1458 572 l 1458 216 q 1409 38 1458 87 q 1232 -12 1359 -12 l 1166 -12 z "},"&":{"ha":1035,"x_min":52,"x_max":1031,"o":"m 631 218 l 340 478 q 304 456 314 473 q 294 374 294 438 l 294 282 q 319 211 294 232 q 403 189 345 189 l 561 189 q 605 196 589 189 q 631 218 621 202 m 1031 123 l 903 -25 l 791 74 q 693 8 753 28 q 529 -12 632 -12 l 400 -12 q 136 50 220 -12 q 52 243 52 111 l 52 371 q 93 519 52 466 q 216 586 134 572 q 155 664 174 623 q 135 758 135 705 l 135 811 q 209 972 135 922 q 449 1022 282 1022 l 526 1022 q 767 972 693 1022 q 840 811 840 922 l 840 703 l 618 703 l 618 775 q 602 814 618 802 q 547 827 585 827 l 443 827 q 388 814 405 827 q 371 775 371 802 l 371 743 q 376 718 371 730 q 390 697 382 705 l 701 418 l 701 529 l 921 529 l 921 363 q 915 291 921 318 q 897 243 909 264 l 1031 123 z "},"'":{"ha":239,"x_min":54,"x_max":184,"o":"m 54 975 l 184 975 l 184 596 l 54 596 l 54 975 z "},"(":{"ha":558,"x_min":126,"x_max":458,"o":"m 126 676 q 181 946 126 870 q 372 1022 236 1022 l 458 1022 l 458 853 q 379 815 400 850 q 358 646 358 781 l 358 366 q 379 196 358 231 q 458 158 400 161 l 458 -12 l 372 -12 q 181 64 236 -12 q 126 334 126 140 l 126 676 z "},")":{"ha":558,"x_min":100,"x_max":431,"o":"m 431 676 l 431 334 q 376 64 431 140 q 184 -12 321 -12 l 100 -12 l 100 158 q 178 195 157 161 q 199 366 199 229 l 199 646 q 178 816 199 783 q 100 852 157 850 l 100 1022 l 184 1022 q 376 946 321 1022 q 431 676 431 870 z "},"*":{"ha":711,"x_min":40,"x_max":671,"o":"m 457 650 l 571 478 l 454 410 l 361 595 l 457 650 m 464 771 l 671 783 l 671 647 l 464 660 l 464 771 m 361 836 l 454 1022 l 571 954 l 457 781 l 361 836 m 254 782 l 139 954 l 257 1022 l 350 838 l 254 782 m 40 647 l 40 783 l 248 771 l 248 660 l 40 647 m 349 596 l 257 410 l 139 478 l 253 652 l 349 596 z "},"+":{"ha":1157,"x_min":172,"x_max":985,"o":"m 510 828 l 647 828 l 647 482 l 985 482 l 985 347 l 647 347 l 647 0 l 510 0 l 510 347 l 172 347 l 172 482 l 510 482 l 510 828 z "},",":{"ha":486,"x_min":134,"x_max":355,"o":"m 134 0 l 134 241 l 355 241 l 355 -36 q 301 -139 355 -100 q 154 -178 246 -178 l 134 -178 l 134 -77 l 138 -77 q 191 -62 172 -77 q 210 -20 210 -47 q 209 -7 210 -12 q 208 0 209 -3 l 134 0 z "},"-":{"ha":467,"x_min":31,"x_max":436,"o":"m 31 264 l 31 469 l 436 469 l 436 264 l 31 264 z "},".":{"ha":486,"x_min":132,"x_max":354,"o":"m 132 0 l 132 241 l 354 241 l 354 0 l 132 0 z "},"/":{"ha":379,"x_min":-32,"x_max":428,"o":"m 85 -129 l -32 -129 l 311 1022 l 428 1022 l 85 -129 z "},":":{"ha":486,"x_min":132,"x_max":354,"o":"m 132 463 l 132 704 l 354 704 l 354 463 l 132 463 m 132 0 l 132 241 l 354 241 l 354 0 l 132 0 z "},";":{"ha":486,"x_min":132,"x_max":354,"o":"m 132 0 l 132 241 l 354 241 l 354 -36 q 299 -139 354 -100 q 153 -178 245 -178 l 132 -178 l 132 -77 l 136 -77 q 190 -62 171 -77 q 208 -20 208 -47 q 208 -7 208 -12 q 207 0 208 -3 l 132 0 m 132 463 l 132 704 l 354 704 l 354 463 l 132 463 z "},"<":{"ha":1157,"x_min":179,"x_max":978,"o":"m 978 810 l 978 661 l 372 414 l 978 167 l 978 18 l 179 347 l 179 482 l 978 810 z "},"=":{"ha":1157,"x_min":172,"x_max":985,"o":"m 172 336 l 985 336 l 985 201 l 172 201 l 172 336 m 172 628 l 985 628 l 985 493 l 172 493 l 172 628 z "},">":{"ha":1157,"x_min":179,"x_max":978,"o":"m 179 810 l 978 482 l 978 347 l 179 18 l 179 167 l 786 414 l 179 661 l 179 810 z "},"?":{"ha":799,"x_min":53,"x_max":734,"o":"m 53 742 l 53 802 q 122 964 53 906 q 315 1022 191 1022 l 473 1022 q 665 965 595 1022 q 734 811 734 909 l 734 713 q 726 652 734 684 q 701 595 717 621 q 557 483 671 545 q 525 465 536 471 q 487 434 499 451 q 475 393 475 416 l 475 361 l 237 361 l 237 441 q 258 539 237 502 q 328 603 278 576 l 446 667 q 483 693 472 681 q 494 721 494 706 l 494 783 q 478 827 494 813 q 428 842 462 842 l 368 842 q 309 826 330 842 q 289 779 289 810 l 289 742 l 53 742 m 237 0 l 237 241 l 475 241 l 475 0 l 237 0 z "},"@":{"ha":1389,"x_min":61,"x_max":1329,"o":"m 791 184 q 705 101 754 127 q 590 74 656 74 q 427 132 483 74 q 371 304 371 191 q 466 576 371 467 q 699 686 560 686 q 793 664 753 686 q 859 597 833 642 l 895 664 l 1015 664 l 916 258 q 912 243 913 251 q 911 231 911 235 q 927 195 911 207 q 975 183 943 183 q 1030 197 1002 183 q 1084 235 1059 210 q 1173 361 1143 289 q 1203 521 1203 434 q 1077 788 1203 684 q 753 893 951 893 q 575 870 657 893 q 425 802 492 847 q 248 608 310 724 q 186 354 186 492 q 326 21 186 146 q 701 -103 467 -103 q 916 -70 811 -103 q 1111 26 1021 -37 l 1166 -53 q 946 -170 1063 -131 q 704 -210 830 -210 q 465 -177 574 -210 q 271 -79 355 -144 q 113 110 165 3 q 61 353 61 217 q 97 569 61 466 q 201 755 132 671 q 443 941 302 878 q 757 1004 584 1004 q 972 974 871 1004 q 1147 886 1073 943 q 1284 724 1239 815 q 1329 518 1329 633 q 1285 312 1329 406 q 1157 150 1240 217 q 1054 92 1109 112 q 937 72 998 72 q 829 100 865 72 q 791 184 793 129 m 825 475 q 786 558 817 530 q 707 587 756 587 q 572 503 629 587 q 515 301 515 419 q 543 206 515 239 q 623 174 570 174 q 725 216 679 174 q 789 328 772 259 l 825 475 z "},"A":{"ha":1042,"x_min":26,"x_max":1017,"o":"m 412 382 l 633 382 l 533 800 l 515 800 l 412 382 m 26 0 l 317 1010 l 733 1010 l 1017 0 l 726 0 l 681 176 l 363 176 l 317 0 l 26 0 z "},"B":{"ha":1007,"x_min":103,"x_max":936,"o":"m 103 1010 l 578 1010 q 841 957 765 1010 q 917 775 917 903 l 917 710 q 875 578 917 625 q 747 522 833 532 q 886 451 837 505 q 936 318 936 398 l 936 258 q 858 57 936 115 q 571 0 779 0 l 103 0 l 103 1010 m 372 786 l 372 607 l 564 607 q 626 623 607 607 q 644 676 644 640 l 644 717 q 626 770 644 753 q 564 786 607 786 l 372 786 m 372 414 l 372 225 l 574 225 q 640 242 619 225 q 660 298 660 260 l 660 340 q 640 396 660 379 q 574 414 619 414 l 372 414 z "},"C":{"ha":981,"x_min":71,"x_max":920,"o":"m 920 389 l 920 359 q 833 75 920 162 q 549 -12 746 -12 l 457 -12 q 157 79 243 -12 q 71 400 71 170 l 71 610 q 157 931 71 840 q 457 1022 243 1022 l 532 1022 q 829 942 745 1022 q 913 660 913 862 l 913 640 l 643 640 l 643 659 q 611 756 643 728 q 500 785 579 785 q 383 751 412 785 q 354 587 354 717 l 354 421 q 383 259 354 292 q 500 225 412 225 q 613 256 582 225 q 644 366 644 287 l 644 389 l 920 389 z "},"D":{"ha":1074,"x_min":103,"x_max":1003,"o":"m 103 0 l 103 1010 l 616 1010 q 917 920 831 1010 q 1003 607 1003 831 l 1003 403 q 917 90 1003 179 q 616 0 831 0 l 103 0 m 374 225 l 575 225 q 697 258 668 225 q 726 421 726 292 l 726 587 q 697 751 726 717 q 575 785 667 785 l 374 785 l 374 225 z "},"E":{"ha":954,"x_min":103,"x_max":872,"o":"m 103 0 l 103 1010 l 861 1010 l 861 785 l 374 785 l 374 610 l 847 610 l 847 415 l 374 415 l 374 225 l 872 225 l 872 0 l 103 0 z "},"F":{"ha":851,"x_min":103,"x_max":782,"o":"m 103 0 l 103 1010 l 782 1010 l 782 785 l 374 785 l 374 589 l 758 589 l 758 367 l 374 367 l 374 0 l 103 0 z "},"G":{"ha":1044,"x_min":71,"x_max":975,"o":"m 975 694 l 705 694 q 670 763 703 742 q 561 785 636 785 l 493 785 q 370 751 400 785 q 340 587 340 717 l 340 421 q 370 259 340 293 q 493 225 400 225 l 568 225 q 680 248 648 225 q 711 325 711 270 l 711 364 l 557 364 l 557 553 l 975 553 l 975 380 q 885 82 975 176 q 602 -12 795 -12 l 418 -12 q 159 96 247 -12 q 71 415 71 204 l 71 568 q 163 913 71 804 q 457 1022 256 1022 l 604 1022 q 871 941 767 1022 q 975 737 975 860 l 975 694 z "},"H":{"ha":1100,"x_min":103,"x_max":997,"o":"m 103 0 l 103 1010 l 374 1010 l 374 632 l 726 632 l 726 1010 l 997 1010 l 997 0 l 726 0 l 726 395 l 374 395 l 374 0 l 103 0 z "},"I":{"ha":494,"x_min":111,"x_max":385,"o":"m 111 0 l 111 1010 l 385 1010 l 385 0 l 111 0 z "},"J":{"ha":864,"x_min":46,"x_max":762,"o":"m 762 310 q 692 67 762 147 q 476 -12 621 -12 l 351 -12 q 116 58 186 -12 q 46 290 46 128 l 46 433 l 310 433 l 310 318 q 324 244 310 264 q 375 225 338 225 l 424 225 q 475 244 460 225 q 489 318 489 264 l 489 1010 l 762 1010 l 762 310 z "},"K":{"ha":993,"x_min":103,"x_max":993,"o":"m 103 0 l 103 1010 l 374 1010 l 374 631 l 395 631 l 637 1010 l 960 1010 l 627 521 l 993 0 l 659 0 l 393 403 l 374 403 l 374 0 l 103 0 z "},"L":{"ha":850,"x_min":106,"x_max":831,"o":"m 106 0 l 106 1010 l 379 1010 l 379 235 l 831 235 l 831 0 l 106 0 z "},"M":{"ha":1411,"x_min":103,"x_max":1308,"o":"m 913 1010 l 1308 1010 l 1308 0 l 1044 0 l 1044 742 l 842 0 l 571 0 l 367 750 l 367 0 l 103 0 l 103 1010 l 498 1010 l 705 279 l 913 1010 z "},"N":{"ha":1181,"x_min":103,"x_max":1078,"o":"m 103 0 l 103 1010 l 505 1010 l 819 260 l 819 1010 l 1078 1010 l 1078 0 l 675 0 l 361 757 l 361 0 l 103 0 z "},"O":{"ha":1048,"x_min":71,"x_max":978,"o":"m 347 587 l 347 421 q 376 258 347 292 q 498 225 406 225 l 549 225 q 671 259 642 225 q 701 421 701 293 l 701 587 q 671 750 701 716 q 549 785 642 785 l 498 785 q 377 751 406 785 q 347 587 347 717 m 71 610 q 157 931 71 840 q 457 1022 243 1022 l 590 1022 q 891 930 805 1022 q 978 610 978 839 l 978 400 q 891 79 978 171 q 590 -12 805 -12 l 457 -12 q 157 79 243 -12 q 71 400 71 170 l 71 610 z "},"P":{"ha":999,"x_min":103,"x_max":949,"o":"m 103 0 l 103 1010 l 576 1010 q 863 931 777 1010 q 949 673 949 853 l 949 607 q 862 348 949 427 q 576 269 776 269 l 374 269 l 374 0 l 103 0 m 374 494 l 562 494 q 650 518 629 494 q 672 614 672 542 l 672 672 q 645 758 672 732 q 551 783 617 783 l 374 783 l 374 494 z "},"Q":{"ha":1059,"x_min":71,"x_max":1000,"o":"m 347 587 l 347 421 q 376 258 347 292 q 498 225 406 225 l 586 225 l 505 294 l 612 418 l 701 342 l 701 587 q 671 750 701 716 q 549 785 642 785 l 498 785 q 377 751 406 785 q 347 587 347 717 m 71 610 q 157 931 71 840 q 457 1022 243 1022 l 590 1022 q 891 930 805 1022 q 978 610 978 839 l 978 400 q 965 244 978 300 q 922 157 952 189 l 1000 90 l 897 -36 l 810 36 q 718 -1 773 11 q 578 -12 663 -12 l 457 -12 q 157 79 243 -12 q 71 400 71 170 l 71 610 z "},"R":{"ha":997,"x_min":103,"x_max":917,"o":"m 374 522 l 525 522 q 617 546 593 522 q 642 633 642 570 l 642 672 q 617 761 642 736 q 525 785 592 785 l 374 785 l 374 522 m 103 0 l 103 1010 l 510 1010 q 830 948 743 1010 q 917 733 917 887 l 917 652 q 867 491 917 549 q 721 421 818 433 q 870 353 823 404 q 917 208 917 302 l 917 0 l 640 0 l 640 182 q 615 270 640 246 q 524 294 591 294 l 374 294 l 374 0 l 103 0 z "},"S":{"ha":962,"x_min":58,"x_max":904,"o":"m 58 313 l 318 313 l 318 302 q 347 226 318 248 q 450 204 376 204 l 518 204 q 605 221 580 204 q 629 279 629 237 l 629 323 q 610 375 629 359 q 521 399 590 391 l 301 422 q 122 499 178 436 q 65 688 65 563 l 65 750 q 87 876 65 821 q 153 966 110 931 q 241 1009 189 997 q 397 1022 294 1022 l 559 1022 q 791 961 711 1022 q 871 785 871 900 l 871 715 l 611 715 l 611 726 q 590 789 611 772 q 513 807 568 807 l 450 807 q 362 792 386 807 q 338 739 338 777 l 338 697 q 447 629 338 642 l 447 629 l 647 607 q 840 531 777 592 q 904 361 904 471 l 904 264 q 826 63 904 138 q 616 -12 748 -12 l 396 -12 q 139 49 219 -12 q 58 243 58 110 l 58 313 z "},"T":{"ha":875,"x_min":41,"x_max":833,"o":"m 301 0 l 301 785 l 41 785 l 41 1010 l 833 1010 l 833 785 l 575 785 l 575 0 l 301 0 z "},"U":{"ha":1076,"x_min":87,"x_max":989,"o":"m 87 1010 l 357 1010 l 357 421 q 388 262 357 298 q 514 225 418 225 l 564 225 q 689 261 659 225 q 720 421 720 297 l 720 1010 l 989 1010 l 989 400 q 972 201 989 264 q 916 90 956 137 q 797 12 868 35 q 606 -12 726 -12 l 472 -12 q 280 12 351 -12 q 163 90 210 35 q 105 202 122 138 q 87 400 87 267 l 87 1010 z "},"V":{"ha":1026,"x_min":26,"x_max":1002,"o":"m 26 1010 l 314 1010 l 510 221 l 715 1010 l 1002 1010 l 714 0 l 304 0 l 26 1010 z "},"W":{"ha":1442,"x_min":45,"x_max":1396,"o":"m 45 1010 l 318 1010 l 414 236 l 571 1010 l 873 1010 l 1018 236 l 1124 1010 l 1396 1010 l 1227 0 l 842 0 l 718 685 l 590 0 l 200 0 l 45 1010 z "},"X":{"ha":1021,"x_min":32,"x_max":989,"o":"m 32 0 l 298 524 l 69 1010 l 374 1010 l 517 660 l 661 1010 l 966 1010 l 729 524 l 989 0 l 679 0 l 513 385 l 339 0 l 32 0 z "},"Y":{"ha":957,"x_min":-3,"x_max":961,"o":"m -3 1010 l 302 1010 l 482 621 l 659 1010 l 961 1010 l 615 354 l 615 0 l 345 0 l 345 354 l -3 1010 z "},"Z":{"ha":971,"x_min":64,"x_max":890,"o":"m 64 0 l 64 236 l 547 775 l 94 775 l 94 1010 l 890 1010 l 890 768 l 419 235 l 890 235 l 890 0 l 64 0 z "},"[":{"ha":558,"x_min":126,"x_max":454,"o":"m 126 0 l 126 1010 l 454 1010 l 454 852 l 358 852 l 358 158 l 446 158 l 446 0 l 126 0 z "},"\\":{"ha":379,"x_min":-33,"x_max":428,"o":"m 428 -129 l 311 -129 l -33 1022 l 83 1022 l 428 -129 z "},"]":{"ha":558,"x_min":103,"x_max":431,"o":"m 431 0 l 113 0 l 113 158 l 199 158 l 199 852 l 103 852 l 103 1010 l 431 1010 l 431 0 z "},"^":{"ha":1389,"x_min":282,"x_max":1105,"o":"m 608 990 l 779 990 l 1105 610 l 946 610 l 694 861 l 441 610 l 282 610 l 608 990 z "},"_":{"ha":694,"x_min":0,"x_max":694,"o":"m 0 -189 l 694 -189 l 694 -328 l 0 -328 l 0 -189 z "},"`":{"ha":694,"x_min":149,"x_max":457,"o":"m 149 1050 l 323 1050 l 457 799 l 361 799 l 149 1050 z "},"a":{"ha":812,"x_min":64,"x_max":724,"o":"m 364 146 l 427 146 q 477 161 460 146 q 494 208 494 177 l 494 245 q 477 293 494 277 q 427 309 460 309 l 364 309 q 312 293 330 309 q 294 245 294 277 l 294 208 q 312 161 294 177 q 364 146 330 146 m 97 532 q 154 679 98 635 q 339 724 210 724 l 447 724 q 661 670 597 724 q 724 489 724 616 l 724 0 l 496 0 l 496 65 q 428 9 467 27 q 336 -9 389 -9 l 254 -9 q 113 42 163 -9 q 64 189 64 94 l 64 256 q 120 397 64 348 q 281 447 176 447 l 343 447 q 431 430 392 447 q 496 382 471 414 l 496 521 q 481 569 496 554 q 433 583 467 583 l 395 583 q 338 572 353 583 q 323 532 323 561 l 97 532 z "},"b":{"ha":815,"x_min":100,"x_max":750,"o":"m 410 545 q 344 519 362 545 q 326 411 326 494 l 326 301 q 344 193 326 218 q 410 168 362 168 l 436 168 q 502 193 484 168 q 519 301 519 218 l 519 411 q 502 519 519 494 q 436 545 484 545 l 410 545 m 100 1010 l 326 1010 l 326 625 q 397 699 349 673 q 513 724 444 724 q 692 653 635 724 q 750 431 750 582 l 750 283 q 693 61 750 132 q 514 -9 636 -9 q 394 17 441 -9 q 317 102 347 43 l 319 0 l 100 0 l 100 1010 z "},"c":{"ha":786,"x_min":64,"x_max":728,"o":"m 726 282 q 727 266 726 277 q 728 249 728 254 q 663 50 728 110 q 443 -9 597 -9 l 347 -9 q 127 56 191 -9 q 64 283 64 121 l 64 431 q 127 658 64 593 q 347 724 191 724 l 443 724 q 661 665 596 724 q 726 468 726 606 l 726 449 l 498 449 l 498 456 q 480 532 498 511 q 412 553 461 553 l 382 553 q 313 530 330 553 q 296 414 296 507 l 296 300 q 313 184 296 207 q 382 161 330 161 l 412 161 q 480 183 462 161 q 498 265 498 205 l 498 282 l 726 282 z "},"d":{"ha":815,"x_min":64,"x_max":715,"o":"m 406 545 l 379 545 q 314 519 332 545 q 296 411 296 494 l 296 301 q 314 193 296 218 q 379 168 332 168 l 406 168 q 470 193 452 168 q 488 301 488 217 l 488 411 q 470 520 488 496 q 406 545 452 545 m 715 1010 l 715 0 l 494 0 l 497 102 q 420 17 467 43 q 301 -9 374 -9 q 121 61 179 -9 q 64 283 64 132 l 64 431 q 121 653 64 582 q 301 724 179 724 q 417 699 370 724 q 488 625 465 673 l 488 1010 l 715 1010 z "},"e":{"ha":789,"x_min":64,"x_max":726,"o":"m 724 218 q 650 44 715 97 q 443 -9 584 -9 l 347 -9 q 127 56 191 -9 q 64 283 64 121 l 64 431 q 127 658 64 593 q 347 724 191 724 l 443 724 q 663 658 600 724 q 726 431 726 593 l 726 318 l 292 318 l 292 231 q 312 163 292 182 q 382 143 332 143 l 411 143 q 477 159 458 143 q 500 218 496 176 l 724 218 m 292 437 l 504 437 l 504 463 q 485 557 504 534 q 412 581 467 581 l 383 581 q 311 558 330 581 q 292 469 292 535 l 292 437 z "},"f":{"ha":504,"x_min":35,"x_max":492,"o":"m 113 0 l 113 541 l 35 541 l 35 714 l 113 714 q 112 734 112 723 q 111 766 111 745 q 162 951 111 893 q 325 1010 214 1010 l 492 1010 l 492 843 l 439 843 q 366 829 388 843 q 343 782 343 814 l 343 714 l 492 714 l 492 541 l 343 541 l 343 0 l 113 0 z "},"g":{"ha":811,"x_min":68,"x_max":718,"o":"m 298 411 l 298 301 q 317 193 298 218 q 386 168 336 168 l 414 168 q 482 193 463 168 q 501 301 501 218 l 501 411 q 482 519 501 494 q 414 545 463 545 l 386 545 q 317 519 336 545 q 298 411 298 494 m 718 714 l 718 46 q 703 -116 718 -64 q 650 -204 687 -168 q 561 -254 618 -235 q 443 -273 505 -273 l 366 -273 q 167 -227 235 -273 q 100 -89 100 -180 l 100 -49 l 318 -49 q 333 -97 318 -83 q 386 -111 348 -111 l 419 -111 q 484 -87 467 -111 q 501 11 501 -62 l 501 115 q 429 40 477 64 q 297 17 380 17 q 123 82 179 17 q 68 288 68 148 l 68 431 q 125 653 68 582 q 304 724 182 724 q 420 699 372 724 q 492 625 469 673 l 492 714 l 718 714 z "},"h":{"ha":833,"x_min":100,"x_max":746,"o":"m 100 0 l 100 1010 l 326 1010 l 326 612 q 390 695 341 667 q 521 724 439 724 q 697 669 648 724 q 746 464 746 614 l 746 0 l 519 0 l 519 414 q 502 515 519 492 q 418 538 484 538 q 346 512 366 538 q 326 400 326 487 l 326 0 l 100 0 z "},"i":{"ha":422,"x_min":96,"x_max":326,"o":"m 96 832 l 96 1010 l 326 1010 l 326 832 l 96 832 m 96 0 l 96 714 l 326 714 l 326 0 l 96 0 z "},"j":{"ha":429,"x_min":37,"x_max":334,"o":"m 37 -207 l 37 -40 q 88 -26 73 -40 q 103 22 103 -13 l 103 714 l 334 714 l 334 66 q 286 -148 334 -88 q 122 -207 239 -207 l 37 -207 m 103 832 l 103 1010 l 334 1010 l 334 832 l 103 832 z "},"k":{"ha":785,"x_min":100,"x_max":778,"o":"m 100 0 l 100 1010 l 326 1010 l 326 446 l 343 446 l 482 714 l 739 714 l 545 371 l 778 0 l 513 0 l 343 286 l 326 286 l 326 0 l 100 0 z "},"l":{"ha":422,"x_min":103,"x_max":334,"o":"m 103 0 l 103 1010 l 334 1010 l 334 0 l 103 0 z "},"m":{"ha":1182,"x_min":100,"x_max":1095,"o":"m 100 0 l 100 714 l 317 714 l 314 612 q 384 697 338 671 q 504 724 429 724 q 630 697 586 724 q 697 608 675 670 q 767 696 721 669 q 889 724 812 724 q 1049 669 1004 724 q 1095 464 1095 614 l 1095 0 l 871 0 l 871 414 q 855 515 871 493 q 786 538 839 538 q 725 512 741 538 q 708 400 708 487 l 708 0 l 486 0 l 486 414 q 470 515 486 493 q 401 538 454 538 q 340 512 357 538 q 323 400 323 487 l 323 0 l 100 0 z "},"n":{"ha":833,"x_min":100,"x_max":746,"o":"m 100 0 l 100 714 l 319 714 l 317 612 q 395 697 347 671 q 521 724 443 724 q 697 669 648 724 q 746 464 746 614 l 746 0 l 519 0 l 519 414 q 502 515 519 492 q 418 538 484 538 q 346 512 366 538 q 326 400 326 487 l 326 0 l 100 0 z "},"o":{"ha":790,"x_min":64,"x_max":726,"o":"m 296 414 l 296 300 q 313 184 296 207 q 382 161 330 161 l 410 161 q 477 184 460 161 q 494 300 494 206 l 494 414 q 477 530 494 508 q 410 553 460 553 l 382 553 q 313 530 330 553 q 296 414 296 507 m 64 431 q 127 658 64 593 q 347 724 191 724 l 443 724 q 663 658 600 724 q 726 431 726 593 l 726 283 q 663 56 726 121 q 443 -9 600 -9 l 347 -9 q 127 56 191 -9 q 64 283 64 121 l 64 431 z "},"p":{"ha":815,"x_min":100,"x_max":750,"o":"m 410 170 l 436 170 q 502 195 484 170 q 519 302 519 220 l 519 412 q 502 521 519 496 q 436 546 484 546 l 410 546 q 344 521 362 546 q 326 412 326 496 l 326 302 q 344 195 326 220 q 410 170 362 170 m 100 -273 l 100 714 l 319 714 l 317 612 q 394 697 347 670 q 514 724 441 724 q 693 653 636 724 q 750 431 750 582 l 750 283 q 692 61 750 132 q 513 -9 635 -9 q 396 15 444 -9 q 326 87 349 39 l 326 -273 l 100 -273 z "},"q":{"ha":815,"x_min":64,"x_max":715,"o":"m 406 170 q 470 194 452 170 q 488 302 488 218 l 488 412 q 470 522 488 497 q 406 546 452 546 l 379 546 q 314 521 332 546 q 296 412 296 496 l 296 302 q 314 195 296 220 q 379 170 332 170 l 406 170 m 715 -273 l 488 -273 l 488 87 q 417 15 465 39 q 301 -9 370 -9 q 121 61 179 -9 q 64 283 64 132 l 64 431 q 121 653 64 582 q 301 724 179 724 q 420 697 374 724 q 497 612 467 671 l 494 714 l 715 714 l 715 -273 z "},"r":{"ha":703,"x_min":100,"x_max":682,"o":"m 100 0 l 100 714 l 319 714 l 317 612 q 385 697 344 671 q 490 724 425 724 q 640 669 598 724 q 682 464 682 614 l 682 400 l 469 400 l 469 446 q 454 517 469 497 q 399 538 439 538 q 341 514 357 538 q 326 400 326 490 l 326 0 l 100 0 z "},"s":{"ha":793,"x_min":57,"x_max":736,"o":"m 57 204 l 292 204 q 317 150 298 165 q 386 135 336 135 l 416 135 q 490 150 470 135 q 510 204 510 165 q 491 256 510 241 q 414 277 473 271 l 268 290 q 120 350 175 299 q 65 475 65 400 l 65 532 q 133 675 65 626 q 332 724 201 724 l 472 724 q 654 677 593 724 q 715 538 715 631 l 715 522 l 490 522 q 468 566 489 552 q 404 581 448 581 l 375 581 q 309 565 328 581 q 289 513 289 549 q 303 469 289 482 q 355 453 317 456 l 517 437 q 682 385 629 427 q 736 264 736 342 l 736 203 q 668 47 736 104 q 481 -9 600 -9 l 329 -9 q 124 41 191 -9 q 57 195 57 91 l 57 204 z "},"t":{"ha":713,"x_min":25,"x_max":667,"o":"m 326 -9 q 218 8 263 -9 q 144 62 172 26 q 116 123 124 89 q 107 222 107 157 l 107 261 l 107 549 l 25 549 l 25 714 l 107 714 l 107 851 l 334 851 l 334 714 l 636 714 l 636 549 l 334 549 l 334 257 q 348 174 334 192 q 407 157 363 157 q 463 172 448 157 q 478 233 478 188 l 478 293 l 667 293 l 667 212 q 613 44 667 98 q 447 -9 560 -9 l 326 -9 z "},"u":{"ha":839,"x_min":100,"x_max":746,"o":"m 746 714 l 746 0 l 526 0 l 529 102 q 452 17 499 43 q 328 -9 404 -9 q 149 44 198 -9 q 100 249 100 98 l 100 714 l 326 714 l 326 300 q 345 199 326 222 q 428 176 363 176 q 500 201 481 176 q 519 313 519 226 l 519 714 l 746 714 z "},"v":{"ha":765,"x_min":5,"x_max":753,"o":"m 5 714 l 250 714 l 376 176 l 509 714 l 753 714 l 543 0 l 205 0 l 5 714 z "},"w":{"ha":1107,"x_min":33,"x_max":1075,"o":"m 150 0 l 33 714 l 261 714 l 322 180 l 421 714 l 690 714 l 790 183 l 848 714 l 1075 714 l 957 0 l 646 0 l 555 494 l 467 0 l 150 0 z "},"x":{"ha":790,"x_min":32,"x_max":765,"o":"m 32 0 l 235 374 l 58 714 l 314 714 l 400 471 l 493 714 l 742 714 l 564 371 l 765 0 l 507 0 l 399 264 l 285 0 l 32 0 z "},"y":{"ha":758,"x_min":8,"x_max":745,"o":"m 207 8 l 8 714 l 244 714 l 382 183 l 501 714 l 745 714 l 521 -93 q 440 -237 492 -198 q 289 -275 389 -275 q 183 -269 258 -275 q 165 -267 171 -267 l 165 -107 l 215 -107 q 275 -89 248 -107 q 309 -46 302 -71 l 322 8 l 207 8 z "},"z":{"ha":751,"x_min":66,"x_max":688,"o":"m 66 0 l 66 192 l 407 545 l 87 545 l 87 714 l 677 714 l 677 522 l 345 172 l 688 172 l 688 0 l 66 0 z "},"{":{"ha":694,"x_min":107,"x_max":599,"o":"m 599 1002 l 599 860 q 582 861 593 860 q 567 861 571 861 q 474 835 498 861 q 450 725 450 809 l 450 562 q 420 420 450 462 q 310 359 389 378 q 420 300 389 341 q 450 158 450 258 l 450 -5 q 474 -115 450 -89 q 567 -140 498 -140 q 582 -140 571 -140 q 599 -139 593 -139 l 599 -281 q 572 -281 589 -281 q 547 -282 555 -282 q 434 -274 479 -282 q 357 -249 389 -266 q 302 -187 318 -226 q 286 -52 286 -148 l 286 119 q 252 251 286 212 q 135 290 217 290 q 121 290 131 290 q 107 289 112 289 l 107 431 q 121 430 112 431 q 135 429 131 429 q 251 469 216 429 q 286 602 286 508 l 286 771 q 302 907 286 868 q 357 970 318 947 q 434 995 389 987 q 547 1003 479 1003 q 572 1002 555 1003 q 599 1002 589 1002 z "},"|":{"ha":694,"x_min":278,"x_max":418,"o":"m 278 1061 l 418 1061 l 418 -328 l 278 -328 l 278 1061 z "},"}":{"ha":694,"x_min":97,"x_max":589,"o":"m 97 1002 l 143 1002 q 263 994 218 1002 q 339 968 309 985 q 394 906 378 946 q 410 771 410 865 l 410 600 q 444 468 410 507 q 561 429 479 429 q 574 430 565 429 q 589 431 584 431 l 589 289 l 564 289 q 444 251 479 289 q 410 119 410 213 l 410 -52 q 394 -188 410 -149 q 339 -249 378 -227 q 262 -274 307 -266 q 149 -282 216 -282 q 123 -281 140 -282 q 97 -281 106 -281 l 97 -139 q 114 -140 103 -139 q 129 -140 125 -140 q 221 -114 197 -140 q 245 -5 245 -88 l 245 157 q 276 300 245 258 q 386 359 307 342 q 276 420 307 378 q 245 562 245 462 l 245 726 q 221 835 245 809 q 129 861 197 861 q 114 861 125 861 q 97 860 103 860 l 97 1002 z "},"~":{"ha":1157,"x_min":121,"x_max":1038,"o":"m 1038 545 l 1038 395 q 904 324 967 347 q 781 301 842 301 q 718 307 749 301 q 656 322 687 312 q 608 339 640 328 q 382 390 459 390 q 261 365 324 390 q 121 283 199 339 l 121 433 q 259 506 193 482 q 383 530 325 530 q 581 491 463 530 l 583 490 q 621 477 595 486 q 783 440 726 440 q 902 465 841 440 q 1038 545 963 490 z "},"Ä":{"ha":1042,"x_min":26,"x_max":1017,"o":"m 412 382 l 633 382 l 533 800 l 515 800 l 412 382 m 26 0 l 317 1010 l 733 1010 l 1017 0 l 726 0 l 681 176 l 363 176 l 317 0 l 26 0 m 562 1135 l 562 1301 l 715 1301 l 715 1135 l 562 1135 m 326 1135 l 326 1301 l 479 1301 l 479 1135 l 326 1135 z "},"Å":{"ha":1042,"x_min":26,"x_max":1017,"o":"m 441 1157 q 465 1098 441 1122 q 524 1075 488 1075 q 583 1099 559 1075 q 607 1157 607 1122 q 583 1216 607 1192 q 524 1240 558 1240 q 465 1217 488 1240 q 441 1157 441 1193 m 412 382 l 633 382 l 533 800 l 515 800 l 412 382 m 26 0 l 317 1010 l 421 1010 q 363 1075 383 1037 q 343 1157 343 1113 q 396 1285 343 1232 q 524 1337 449 1337 q 652 1285 600 1337 q 704 1157 704 1232 q 684 1073 704 1110 q 627 1010 665 1036 l 733 1010 l 1017 0 l 726 0 l 681 176 l 363 176 l 317 0 l 26 0 z "},"Ç":{"ha":981,"x_min":71,"x_max":920,"o":"m 920 389 l 920 359 q 833 75 920 162 q 549 -12 746 -12 l 457 -12 q 157 79 243 -12 q 71 400 71 170 l 71 610 q 157 931 71 840 q 457 1022 243 1022 l 532 1022 q 829 942 745 1022 q 913 660 913 862 l 913 640 l 643 640 l 643 659 q 611 756 643 728 q 500 785 579 785 q 383 751 412 785 q 354 587 354 717 l 354 421 q 383 259 354 292 q 500 225 412 225 q 613 256 582 225 q 644 366 644 287 l 644 389 l 920 389 m 357 -326 l 357 -239 l 519 -239 q 564 -228 552 -239 q 576 -189 576 -218 q 564 -154 576 -164 q 524 -143 552 -143 l 456 -143 l 456 0 l 525 0 l 525 -66 l 592 -66 q 669 -97 644 -66 q 694 -191 694 -127 q 658 -298 694 -269 q 515 -326 621 -326 l 357 -326 z "},"É":{"ha":954,"x_min":103,"x_max":872,"o":"m 103 0 l 103 1010 l 861 1010 l 861 785 l 374 785 l 374 610 l 847 610 l 847 415 l 374 415 l 374 225 l 872 225 l 872 0 l 103 0 m 686 1345 l 474 1095 l 378 1095 l 511 1345 l 686 1345 z "},"Ñ":{"ha":1181,"x_min":103,"x_max":1078,"o":"m 103 0 l 103 1010 l 505 1010 l 819 260 l 819 1010 l 1078 1010 l 1078 0 l 675 0 l 361 757 l 361 0 l 103 0 m 805 1312 q 753 1187 787 1227 q 664 1147 718 1147 q 640 1149 652 1147 q 614 1156 627 1152 l 554 1172 q 530 1177 541 1175 q 509 1179 519 1179 q 472 1167 486 1179 q 450 1126 458 1154 l 375 1126 q 425 1247 391 1208 q 513 1286 459 1286 q 544 1284 530 1286 q 572 1278 558 1282 l 635 1259 q 652 1255 643 1257 q 672 1254 661 1254 q 708 1269 694 1254 q 730 1312 723 1283 l 805 1312 z "},"Ö":{"ha":1048,"x_min":71,"x_max":978,"o":"m 347 587 l 347 421 q 376 258 347 292 q 498 225 406 225 l 549 225 q 671 259 642 225 q 701 421 701 293 l 701 587 q 671 750 701 716 q 549 785 642 785 l 498 785 q 377 751 406 785 q 347 587 347 717 m 71 610 q 157 931 71 840 q 457 1022 243 1022 l 590 1022 q 891 930 805 1022 q 978 610 978 839 l 978 400 q 891 79 978 171 q 590 -12 805 -12 l 457 -12 q 157 79 243 -12 q 71 400 71 170 l 71 610 m 566 1135 l 566 1301 l 720 1301 l 720 1135 l 566 1135 m 330 1135 l 330 1301 l 484 1301 l 484 1135 l 330 1135 z "},"Ü":{"ha":1076,"x_min":87,"x_max":989,"o":"m 87 1010 l 357 1010 l 357 421 q 388 262 357 298 q 514 225 418 225 l 564 225 q 689 261 659 225 q 720 421 720 297 l 720 1010 l 989 1010 l 989 400 q 972 201 989 264 q 916 90 956 137 q 797 12 868 35 q 606 -12 726 -12 l 472 -12 q 280 12 351 -12 q 163 90 210 35 q 105 202 122 138 q 87 400 87 267 l 87 1010 m 581 1135 l 581 1301 l 734 1301 l 734 1135 l 581 1135 m 345 1135 l 345 1301 l 498 1301 l 498 1135 l 345 1135 z "},"á":{"ha":812,"x_min":64,"x_max":724,"o":"m 364 146 l 427 146 q 477 161 460 146 q 494 208 494 177 l 494 245 q 477 293 494 277 q 427 309 460 309 l 364 309 q 312 293 330 309 q 294 245 294 277 l 294 208 q 312 161 294 177 q 364 146 330 146 m 97 532 q 154 679 98 635 q 339 724 210 724 l 447 724 q 661 670 597 724 q 724 489 724 616 l 724 0 l 496 0 l 496 65 q 428 9 467 27 q 336 -9 389 -9 l 254 -9 q 113 42 163 -9 q 64 189 64 94 l 64 256 q 120 397 64 348 q 281 447 176 447 l 343 447 q 431 430 392 447 q 496 382 471 414 l 496 521 q 481 569 496 554 q 433 583 467 583 l 395 583 q 338 572 353 583 q 323 532 323 561 l 97 532 m 616 1050 l 404 799 l 308 799 l 441 1050 l 616 1050 z "},"à":{"ha":812,"x_min":64,"x_max":724,"o":"m 364 146 l 427 146 q 477 161 460 146 q 494 208 494 177 l 494 245 q 477 293 494 277 q 427 309 460 309 l 364 309 q 312 293 330 309 q 294 245 294 277 l 294 208 q 312 161 294 177 q 364 146 330 146 m 97 532 q 154 679 98 635 q 339 724 210 724 l 447 724 q 661 670 597 724 q 724 489 724 616 l 724 0 l 496 0 l 496 65 q 428 9 467 27 q 336 -9 389 -9 l 254 -9 q 113 42 163 -9 q 64 189 64 94 l 64 256 q 120 397 64 348 q 281 447 176 447 l 343 447 q 431 430 392 447 q 496 382 471 414 l 496 521 q 481 569 496 554 q 433 583 467 583 l 395 583 q 338 572 353 583 q 323 532 323 561 l 97 532 m 219 1050 l 394 1050 l 528 799 l 431 799 l 219 1050 z "},"â":{"ha":812,"x_min":64,"x_max":724,"o":"m 364 146 l 427 146 q 477 161 460 146 q 494 208 494 177 l 494 245 q 477 293 494 277 q 427 309 460 309 l 364 309 q 312 293 330 309 q 294 245 294 277 l 294 208 q 312 161 294 177 q 364 146 330 146 m 97 532 q 154 679 98 635 q 339 724 210 724 l 447 724 q 661 670 597 724 q 724 489 724 616 l 724 0 l 496 0 l 496 65 q 428 9 467 27 q 336 -9 389 -9 l 254 -9 q 113 42 163 -9 q 64 189 64 94 l 64 256 q 120 397 64 348 q 281 447 176 447 l 343 447 q 431 430 392 447 q 496 382 471 414 l 496 521 q 481 569 496 554 q 433 583 467 583 l 395 583 q 338 572 353 583 q 323 532 323 561 l 97 532 m 204 799 l 337 1050 l 498 1050 l 631 799 l 536 799 l 418 946 l 298 799 l 204 799 z "},"ä":{"ha":812,"x_min":64,"x_max":724,"o":"m 364 146 l 427 146 q 477 161 460 146 q 494 208 494 177 l 494 245 q 477 293 494 277 q 427 309 460 309 l 364 309 q 312 293 330 309 q 294 245 294 277 l 294 208 q 312 161 294 177 q 364 146 330 146 m 97 532 q 154 679 98 635 q 339 724 210 724 l 447 724 q 661 670 597 724 q 724 489 724 616 l 724 0 l 496 0 l 496 65 q 428 9 467 27 q 336 -9 389 -9 l 254 -9 q 113 42 163 -9 q 64 189 64 94 l 64 256 q 120 397 64 348 q 281 447 176 447 l 343 447 q 431 430 392 447 q 496 382 471 414 l 496 521 q 481 569 496 554 q 433 583 467 583 l 395 583 q 338 572 353 583 q 323 532 323 561 l 97 532 m 459 839 l 459 1006 l 612 1006 l 612 839 l 459 839 m 223 839 l 223 1006 l 376 1006 l 376 839 l 223 839 z "},"ã":{"ha":812,"x_min":64,"x_max":724,"o":"m 364 146 l 427 146 q 477 161 460 146 q 494 208 494 177 l 494 245 q 477 293 494 277 q 427 309 460 309 l 364 309 q 312 293 330 309 q 294 245 294 277 l 294 208 q 312 161 294 177 q 364 146 330 146 m 97 532 q 154 679 98 635 q 339 724 210 724 l 447 724 q 661 670 597 724 q 724 489 724 616 l 724 0 l 496 0 l 496 65 q 428 9 467 27 q 336 -9 389 -9 l 254 -9 q 113 42 163 -9 q 64 189 64 94 l 64 256 q 120 397 64 348 q 281 447 176 447 l 343 447 q 431 430 392 447 q 496 382 471 414 l 496 521 q 481 569 496 554 q 433 583 467 583 l 395 583 q 338 572 353 583 q 323 532 323 561 l 97 532 m 633 1017 q 581 891 615 932 q 492 851 546 851 q 468 853 480 851 q 441 860 455 856 l 382 876 q 358 881 369 880 q 337 884 347 883 q 300 871 314 884 q 277 831 286 859 l 203 831 q 253 951 219 913 q 341 990 287 990 q 372 988 358 990 q 399 982 386 986 l 463 964 q 480 960 471 961 q 500 958 489 958 q 536 973 522 958 q 558 1017 551 987 l 633 1017 z "},"å":{"ha":812,"x_min":64,"x_max":724,"o":"m 343 949 q 366 890 343 913 q 425 867 389 867 q 485 890 460 867 q 509 949 509 914 q 484 1007 509 983 q 425 1032 459 1032 q 367 1008 390 1032 q 343 949 343 984 m 245 949 q 298 1077 245 1024 q 425 1129 350 1129 q 553 1077 500 1129 q 606 949 606 1024 q 553 821 606 873 q 425 768 501 768 q 297 820 349 768 q 245 949 245 872 m 364 146 l 427 146 q 477 161 460 146 q 494 208 494 177 l 494 245 q 477 293 494 277 q 427 309 460 309 l 364 309 q 312 293 330 309 q 294 245 294 277 l 294 208 q 312 161 294 177 q 364 146 330 146 m 97 532 q 154 679 98 635 q 339 724 210 724 l 447 724 q 661 670 597 724 q 724 489 724 616 l 724 0 l 496 0 l 496 65 q 428 9 467 27 q 336 -9 389 -9 l 254 -9 q 113 42 163 -9 q 64 189 64 94 l 64 256 q 120 397 64 348 q 281 447 176 447 l 345 447 q 432 430 393 447 q 496 382 471 414 l 496 521 q 481 569 496 554 q 433 583 467 583 l 395 583 q 338 572 353 583 q 323 532 323 561 l 97 532 z "},"ç":{"ha":786,"x_min":64,"x_max":728,"o":"m 726 282 q 727 266 726 277 q 728 249 728 254 q 663 50 728 110 q 443 -9 597 -9 l 347 -9 q 127 56 191 -9 q 64 283 64 121 l 64 431 q 127 658 64 593 q 347 724 191 724 l 443 724 q 661 665 596 724 q 726 468 726 606 l 726 449 l 498 449 l 498 456 q 480 532 498 511 q 412 553 461 553 l 382 553 q 313 530 330 553 q 296 414 296 507 l 296 300 q 313 184 296 207 q 382 161 330 161 l 412 161 q 480 183 462 161 q 498 265 498 205 l 498 282 l 726 282 m 260 -326 l 260 -239 l 422 -239 q 467 -228 455 -239 q 479 -189 479 -218 q 467 -154 479 -164 q 427 -143 455 -143 l 359 -143 l 359 0 l 428 0 l 428 -66 l 495 -66 q 572 -97 547 -66 q 597 -191 597 -127 q 561 -298 597 -269 q 418 -326 524 -326 l 260 -326 z "},"é":{"ha":789,"x_min":64,"x_max":726,"o":"m 724 218 q 650 44 715 97 q 443 -9 584 -9 l 347 -9 q 127 56 191 -9 q 64 283 64 121 l 64 431 q 127 658 64 593 q 347 724 191 724 l 443 724 q 663 658 600 724 q 726 431 726 593 l 726 318 l 292 318 l 292 231 q 312 163 292 182 q 382 143 332 143 l 411 143 q 477 159 458 143 q 500 218 496 176 l 724 218 m 292 437 l 504 437 l 504 463 q 485 557 504 534 q 412 581 467 581 l 383 581 q 311 558 330 581 q 292 469 292 535 l 292 437 m 593 1050 l 381 799 l 285 799 l 418 1050 l 593 1050 z "},"è":{"ha":789,"x_min":64,"x_max":726,"o":"m 724 218 q 650 44 715 97 q 443 -9 584 -9 l 347 -9 q 127 56 191 -9 q 64 283 64 121 l 64 431 q 127 658 64 593 q 347 724 191 724 l 443 724 q 663 658 600 724 q 726 431 726 593 l 726 318 l 292 318 l 292 231 q 312 163 292 182 q 382 143 332 143 l 411 143 q 477 159 458 143 q 500 218 496 176 l 724 218 m 292 437 l 504 437 l 504 463 q 485 557 504 534 q 412 581 467 581 l 383 581 q 311 558 330 581 q 292 469 292 535 l 292 437 m 196 1050 l 371 1050 l 505 799 l 408 799 l 196 1050 z "},"ê":{"ha":789,"x_min":64,"x_max":726,"o":"m 724 218 q 650 44 715 97 q 443 -9 584 -9 l 347 -9 q 127 56 191 -9 q 64 283 64 121 l 64 431 q 127 658 64 593 q 347 724 191 724 l 443 724 q 663 658 600 724 q 726 431 726 593 l 726 318 l 292 318 l 292 231 q 312 163 292 182 q 382 143 332 143 l 411 143 q 477 159 458 143 q 500 218 496 176 l 724 218 m 292 437 l 504 437 l 504 463 q 485 557 504 534 q 412 581 467 581 l 383 581 q 311 558 330 581 q 292 469 292 535 l 292 437 m 181 799 l 314 1050 l 475 1050 l 608 799 l 513 799 l 395 946 l 275 799 l 181 799 z "},"ë":{"ha":789,"x_min":64,"x_max":726,"o":"m 724 218 q 650 44 715 97 q 443 -9 584 -9 l 347 -9 q 127 56 191 -9 q 64 283 64 121 l 64 431 q 127 658 64 593 q 347 724 191 724 l 443 724 q 663 658 600 724 q 726 431 726 593 l 726 318 l 292 318 l 292 231 q 312 163 292 182 q 382 143 332 143 l 411 143 q 477 159 458 143 q 500 218 496 176 l 724 218 m 292 437 l 504 437 l 504 463 q 485 557 504 534 q 412 581 467 581 l 383 581 q 311 558 330 581 q 292 469 292 535 l 292 437 m 436 839 l 436 1006 l 589 1006 l 589 839 l 436 839 m 200 839 l 200 1006 l 353 1006 l 353 839 l 200 839 z "},"í":{"ha":422,"x_min":96,"x_max":410,"o":"m 96 0 l 96 714 l 326 714 l 326 0 l 96 0 m 410 1050 l 197 799 l 101 799 l 235 1050 l 410 1050 z "},"ì":{"ha":422,"x_min":12,"x_max":326,"o":"m 96 0 l 96 714 l 326 714 l 326 0 l 96 0 m 12 1050 l 187 1050 l 321 799 l 224 799 l 12 1050 z "},"î":{"ha":422,"x_min":-3,"x_max":425,"o":"m 96 0 l 96 714 l 326 714 l 326 0 l 96 0 m -3 799 l 130 1050 l 292 1050 l 425 799 l 329 799 l 211 946 l 92 799 l -3 799 z "},"ï":{"ha":422,"x_min":16,"x_max":406,"o":"m 96 0 l 96 714 l 326 714 l 326 0 l 96 0 m 252 839 l 252 1006 l 406 1006 l 406 839 l 252 839 m 16 839 l 16 1006 l 170 1006 l 170 839 l 16 839 z "},"ñ":{"ha":833,"x_min":100,"x_max":746,"o":"m 100 0 l 100 714 l 319 714 l 317 612 q 395 697 347 671 q 521 724 443 724 q 697 669 648 724 q 746 464 746 614 l 746 0 l 519 0 l 519 414 q 502 515 519 492 q 418 538 484 538 q 346 512 366 538 q 326 400 326 487 l 326 0 l 100 0 m 643 1017 q 591 891 625 932 q 502 851 556 851 q 478 853 490 851 q 452 860 465 856 l 392 876 q 368 881 379 880 q 347 884 357 883 q 310 871 324 884 q 288 831 296 859 l 213 831 q 263 951 229 913 q 351 990 297 990 q 382 988 368 990 q 410 982 396 986 l 473 964 q 490 960 481 961 q 510 958 499 958 q 546 973 532 958 q 568 1017 561 987 l 643 1017 z "},"ó":{"ha":790,"x_min":64,"x_max":726,"o":"m 296 414 l 296 300 q 313 184 296 207 q 382 161 330 161 l 410 161 q 477 184 460 161 q 494 300 494 206 l 494 414 q 477 530 494 508 q 410 553 460 553 l 382 553 q 313 530 330 553 q 296 414 296 507 m 64 431 q 127 658 64 593 q 347 724 191 724 l 443 724 q 663 658 600 724 q 726 431 726 593 l 726 283 q 663 56 726 121 q 443 -9 600 -9 l 347 -9 q 127 56 191 -9 q 64 283 64 121 l 64 431 m 595 1050 l 382 799 l 286 799 l 420 1050 l 595 1050 z "},"ò":{"ha":790,"x_min":64,"x_max":726,"o":"m 296 414 l 296 300 q 313 184 296 207 q 382 161 330 161 l 410 161 q 477 184 460 161 q 494 300 494 206 l 494 414 q 477 530 494 508 q 410 553 460 553 l 382 553 q 313 530 330 553 q 296 414 296 507 m 64 431 q 127 658 64 593 q 347 724 191 724 l 443 724 q 663 658 600 724 q 726 431 726 593 l 726 283 q 663 56 726 121 q 443 -9 600 -9 l 347 -9 q 127 56 191 -9 q 64 283 64 121 l 64 431 m 197 1050 l 372 1050 l 506 799 l 410 799 l 197 1050 z "},"ô":{"ha":790,"x_min":64,"x_max":726,"o":"m 296 414 l 296 300 q 313 184 296 207 q 382 161 330 161 l 410 161 q 477 184 460 161 q 494 300 494 206 l 494 414 q 477 530 494 508 q 410 553 460 553 l 382 553 q 313 530 330 553 q 296 414 296 507 m 64 431 q 127 658 64 593 q 347 724 191 724 l 443 724 q 663 658 600 724 q 726 431 726 593 l 726 283 q 663 56 726 121 q 443 -9 600 -9 l 347 -9 q 127 56 191 -9 q 64 283 64 121 l 64 431 m 182 799 l 315 1050 l 477 1050 l 610 799 l 514 799 l 396 946 l 277 799 l 182 799 z "},"ö":{"ha":790,"x_min":64,"x_max":726,"o":"m 296 414 l 296 300 q 313 184 296 207 q 382 161 330 161 l 410 161 q 477 184 460 161 q 494 300 494 206 l 494 414 q 477 530 494 508 q 410 553 460 553 l 382 553 q 313 530 330 553 q 296 414 296 507 m 64 431 q 127 658 64 593 q 347 724 191 724 l 443 724 q 663 658 600 724 q 726 431 726 593 l 726 283 q 663 56 726 121 q 443 -9 600 -9 l 347 -9 q 127 56 191 -9 q 64 283 64 121 l 64 431 m 437 839 l 437 1006 l 591 1006 l 591 839 l 437 839 m 201 839 l 201 1006 l 355 1006 l 355 839 l 201 839 z "},"õ":{"ha":790,"x_min":64,"x_max":726,"o":"m 296 414 l 296 300 q 313 184 296 207 q 382 161 330 161 l 410 161 q 477 184 460 161 q 494 300 494 206 l 494 414 q 477 530 494 508 q 410 553 460 553 l 382 553 q 313 530 330 553 q 296 414 296 507 m 64 431 q 127 658 64 593 q 347 724 191 724 l 443 724 q 663 658 600 724 q 726 431 726 593 l 726 283 q 663 56 726 121 q 443 -9 600 -9 l 347 -9 q 127 56 191 -9 q 64 283 64 121 l 64 431 m 611 1017 q 559 891 593 932 q 470 851 524 851 q 446 853 458 851 q 420 860 433 856 l 360 876 q 336 881 347 880 q 315 884 326 883 q 278 871 292 884 q 256 831 264 859 l 181 831 q 231 951 197 913 q 319 990 265 990 q 350 988 336 990 q 378 982 364 986 l 441 964 q 458 960 449 961 q 478 958 467 958 q 514 973 500 958 q 536 1017 529 987 l 611 1017 z "},"ú":{"ha":839,"x_min":100,"x_max":746,"o":"m 746 714 l 746 0 l 526 0 l 529 102 q 452 17 499 43 q 328 -9 404 -9 q 149 44 198 -9 q 100 249 100 98 l 100 714 l 326 714 l 326 300 q 345 199 326 222 q 428 176 363 176 q 500 201 481 176 q 519 313 519 226 l 519 714 l 746 714 m 632 1050 l 420 799 l 323 799 l 457 1050 l 632 1050 z "},"ù":{"ha":839,"x_min":100,"x_max":746,"o":"m 746 714 l 746 0 l 526 0 l 529 102 q 452 17 499 43 q 328 -9 404 -9 q 149 44 198 -9 q 100 249 100 98 l 100 714 l 326 714 l 326 300 q 345 199 326 222 q 428 176 363 176 q 500 201 481 176 q 519 313 519 226 l 519 714 l 746 714 m 235 1050 l 410 1050 l 543 799 l 447 799 l 235 1050 z "},"û":{"ha":839,"x_min":100,"x_max":746,"o":"m 746 714 l 746 0 l 526 0 l 529 102 q 452 17 499 43 q 328 -9 404 -9 q 149 44 198 -9 q 100 249 100 98 l 100 714 l 326 714 l 326 300 q 345 199 326 222 q 428 176 363 176 q 500 201 481 176 q 519 313 519 226 l 519 714 l 746 714 m 220 799 l 353 1050 l 514 1050 l 647 799 l 551 799 l 433 946 l 314 799 l 220 799 z "},"ü":{"ha":839,"x_min":100,"x_max":746,"o":"m 746 714 l 746 0 l 526 0 l 529 102 q 452 17 499 43 q 328 -9 404 -9 q 149 44 198 -9 q 100 249 100 98 l 100 714 l 326 714 l 326 300 q 345 199 326 222 q 428 176 363 176 q 500 201 481 176 q 519 313 519 226 l 519 714 l 746 714 m 475 839 l 475 1006 l 628 1006 l 628 839 l 475 839 m 239 839 l 239 1006 l 392 1006 l 392 839 l 239 839 z "},"†":{"ha":711,"x_min":35,"x_max":675,"o":"m 237 0 l 237 562 l 35 562 l 35 772 l 237 772 l 237 1010 l 472 1010 l 472 772 l 675 772 l 675 562 l 472 562 l 472 0 l 237 0 z "},"°":{"ha":457,"x_min":24,"x_max":435,"o":"m 229 905 q 145 871 180 905 q 110 787 110 836 q 144 703 110 737 q 229 668 179 668 q 313 703 278 668 q 347 787 347 739 q 313 871 347 836 q 229 905 278 905 m 229 993 q 375 932 315 993 q 435 786 435 871 q 374 641 435 701 q 228 581 314 581 q 83 640 142 581 q 24 786 24 700 q 84 932 24 872 q 229 993 144 993 z "},"¢":{"ha":971,"x_min":157,"x_max":819,"o":"m 393 212 l 492 562 l 453 562 q 398 536 414 562 q 383 424 383 509 l 383 309 q 386 249 383 270 q 393 212 388 227 m 460 171 l 501 171 q 575 193 555 171 q 595 277 595 216 l 595 292 l 819 292 l 819 277 q 753 63 819 125 q 525 0 688 0 l 412 0 l 363 -184 l 283 -184 l 338 7 q 198 92 240 27 q 157 293 157 157 l 157 440 q 220 668 157 603 q 439 733 283 733 l 541 733 l 586 900 l 665 900 l 619 729 q 770 652 721 718 q 819 464 819 587 l 819 458 l 591 458 q 586 516 591 496 q 567 547 580 536 l 460 171 z "},"£":{"ha":971,"x_min":85,"x_max":926,"o":"m 110 0 l 110 224 q 175 247 151 224 q 199 309 199 270 l 199 399 l 85 399 l 85 579 l 199 579 l 199 732 q 281 945 199 868 q 511 1022 364 1022 l 583 1022 q 819 959 732 1022 q 905 787 905 895 l 905 714 l 663 714 l 663 750 q 641 800 663 781 q 582 819 618 819 l 534 819 q 475 801 496 819 q 454 747 454 782 l 454 579 l 714 579 l 714 399 l 454 399 q 434 290 453 330 q 370 224 414 251 l 926 224 l 926 0 l 110 0 z "},"§":{"ha":711,"x_min":12,"x_max":697,"o":"m 245 472 l 478 421 q 502 437 494 427 q 510 460 510 447 l 510 496 q 499 521 510 511 q 465 536 488 531 l 233 587 q 209 572 216 581 q 201 549 201 562 l 201 513 q 212 487 201 497 q 245 472 223 477 m 579 387 q 648 331 626 368 q 669 239 669 295 l 669 180 q 611 35 669 80 q 422 -11 552 -11 l 257 -11 q 89 38 146 -11 q 31 180 31 87 l 31 191 l 240 190 q 260 146 241 160 q 319 132 279 132 l 382 132 q 441 146 425 132 q 457 197 457 160 q 446 243 457 231 q 395 265 435 256 l 127 326 q 40 371 68 340 q 12 453 12 401 l 12 497 q 38 579 12 550 q 131 627 64 608 q 70 677 89 644 q 52 772 52 711 l 52 829 q 112 975 52 928 q 300 1022 172 1022 l 429 1022 q 598 973 541 1022 q 656 828 656 924 l 656 821 l 446 821 q 426 864 445 850 q 367 878 408 878 l 335 878 q 275 864 291 878 q 260 811 260 850 q 272 763 260 777 q 322 741 283 749 l 579 685 q 669 642 642 671 q 697 558 697 612 l 697 515 q 669 433 697 463 q 579 387 642 402 z "},"•":{"ha":819,"x_min":208,"x_max":610,"o":"m 208 517 q 267 659 208 600 q 410 717 326 717 q 551 658 492 717 q 610 517 610 600 q 550 375 610 434 q 408 315 491 315 q 267 374 325 315 q 208 517 208 433 z "},"¶":{"ha":694,"x_min":28,"x_max":667,"o":"m 667 1003 l 667 928 l 590 928 l 590 0 l 488 0 l 488 928 l 380 928 l 380 0 l 277 0 l 277 532 q 96 600 163 536 q 28 766 28 665 q 100 938 28 873 q 293 1003 173 1003 l 667 1003 z "},"ß":{"ha":803,"x_min":97,"x_max":745,"o":"m 97 0 l 97 751 q 161 945 97 880 q 354 1010 226 1010 l 439 1010 q 621 955 557 1010 q 685 799 685 899 l 685 722 q 664 626 685 659 q 593 575 643 593 q 708 511 671 562 q 745 366 745 460 l 745 241 q 686 48 745 106 q 492 -9 627 -9 q 451 -8 471 -9 q 408 -3 430 -6 l 408 163 q 417 163 412 163 q 432 163 422 163 q 493 185 475 163 q 511 262 511 208 l 511 392 q 489 460 511 440 q 408 479 466 479 l 408 625 q 456 643 442 628 q 469 693 469 658 l 469 768 q 453 823 469 806 q 399 840 436 840 q 344 820 359 840 q 329 745 329 800 l 329 0 l 97 0 z "},"®":{"ha":1157,"x_min":75,"x_max":1083,"o":"m 505 701 l 505 539 l 572 539 q 660 558 632 539 q 688 618 688 577 q 658 681 688 661 q 566 701 628 701 l 505 701 m 370 787 l 589 787 q 768 747 708 787 q 828 627 828 707 q 795 532 828 571 q 705 478 763 492 l 831 228 l 679 228 l 572 457 l 505 457 l 505 228 l 370 228 l 370 787 m 579 920 q 419 889 493 920 q 286 800 345 859 q 191 660 224 739 q 158 498 158 582 q 189 339 158 414 q 279 204 220 263 q 417 110 340 142 q 578 77 494 77 q 736 109 659 77 q 876 200 813 140 q 968 333 935 257 q 1000 490 1000 409 q 970 656 1000 581 q 880 793 940 732 q 743 888 819 856 q 579 920 667 920 m 578 1003 q 775 964 682 1003 q 940 851 867 925 q 1046 690 1010 781 q 1083 497 1083 599 q 1045 302 1083 394 q 935 140 1007 210 q 769 31 862 69 q 578 -7 677 -7 q 385 33 477 -7 q 220 146 292 72 q 112 308 149 217 q 75 497 75 398 q 94 632 75 566 q 149 760 112 697 q 330 939 217 875 q 578 1003 442 1003 z "},"©":{"ha":1157,"x_min":75,"x_max":1083,"o":"m 822 608 l 694 608 q 659 682 689 656 q 578 708 628 708 q 481 653 516 708 q 446 498 446 597 q 481 347 446 399 q 583 294 516 294 q 663 323 633 294 q 699 404 692 351 l 829 404 q 755 253 824 310 q 579 196 687 196 q 380 276 453 196 q 307 494 307 356 q 381 717 307 634 q 581 800 456 800 q 750 747 684 800 q 822 608 817 694 m 579 920 q 417 888 492 920 q 282 798 341 857 q 190 660 222 736 q 158 498 158 583 q 190 338 158 414 q 282 201 222 262 q 418 110 342 142 q 579 78 495 78 q 740 110 663 78 q 879 203 817 142 q 969 336 939 261 q 1000 498 1000 412 q 969 660 1000 584 q 878 796 937 736 q 741 888 817 857 q 579 920 665 920 m 578 1003 q 773 965 681 1003 q 937 854 865 927 q 1046 691 1008 783 q 1083 497 1083 600 q 1046 304 1083 394 q 937 144 1009 215 q 769 32 862 71 q 578 -7 676 -7 q 388 32 478 -7 q 224 143 297 70 q 113 306 151 215 q 75 497 75 397 q 113 690 75 598 q 224 856 151 782 q 385 965 295 928 q 578 1003 475 1003 z "},"™":{"ha":1157,"x_min":140,"x_max":981,"o":"m 545 991 l 677 991 l 764 766 l 847 991 l 981 991 l 981 621 l 889 621 l 889 899 l 785 621 l 743 621 l 636 899 l 636 621 l 545 621 l 545 991 m 140 991 l 469 991 l 469 916 l 355 916 l 355 621 l 254 621 l 254 916 l 140 916 l 140 991 z "},"´":{"ha":694,"x_min":237,"x_max":546,"o":"m 546 1050 l 334 799 l 237 799 l 371 1050 l 546 1050 z "},"¨":{"ha":694,"x_min":153,"x_max":542,"o":"m 389 839 l 389 1006 l 542 1006 l 542 839 l 389 839 m 153 839 l 153 1006 l 306 1006 l 306 839 l 153 839 z "},"≠":{"ha":1157,"x_min":172,"x_max":985,"o":"m 812 836 l 913 755 l 808 625 l 985 625 l 985 496 l 721 496 l 591 334 l 985 334 l 985 203 l 505 203 l 339 -7 l 239 74 l 343 203 l 172 203 l 172 334 l 428 334 l 557 496 l 172 496 l 172 625 l 644 625 l 812 836 z "},"Æ":{"ha":1367,"x_min":-26,"x_max":1276,"o":"m 407 406 l 619 406 l 619 817 l 554 817 l 407 406 m -26 0 l 378 1010 l 1267 1010 l 1267 798 l 879 798 l 879 611 l 1255 611 l 1255 422 l 879 422 l 879 214 l 1276 214 l 1276 0 l 619 0 l 619 215 l 338 215 l 261 0 l -26 0 z "},"Ø":{"ha":1048,"x_min":8,"x_max":1043,"o":"m 347 415 l 671 751 q 628 777 654 769 q 549 785 601 785 l 498 785 q 377 751 406 785 q 347 587 347 717 l 347 415 m 701 585 l 382 255 q 422 232 394 239 q 498 225 450 225 l 549 225 q 671 259 642 225 q 701 421 701 293 l 701 585 m 71 610 q 157 931 71 840 q 457 1022 243 1022 l 590 1022 q 757 1006 693 1022 q 865 953 821 989 l 946 1034 l 1043 940 l 947 842 q 970 746 963 800 q 978 610 978 692 l 978 400 q 891 79 978 171 q 590 -12 805 -12 l 457 -12 q 291 3 354 -12 q 187 54 229 19 l 107 -31 l 8 65 l 103 163 q 78 251 85 199 q 71 400 71 302 l 71 610 z "},"∞":{"ha":1157,"x_min":139,"x_max":1019,"o":"m 639 380 q 711 304 669 330 q 806 278 753 278 q 909 316 869 278 q 949 414 949 353 q 912 511 949 473 q 821 549 876 549 q 727 510 770 549 q 639 380 684 471 m 519 447 q 448 523 490 498 q 353 549 406 549 q 249 511 289 549 q 210 412 210 473 q 246 316 210 355 q 338 278 283 278 q 431 317 389 278 q 519 447 474 357 m 582 310 q 483 178 536 220 q 364 135 429 135 q 204 215 269 135 q 139 414 139 294 q 197 615 139 538 q 349 692 255 692 q 464 651 411 692 q 575 517 517 610 q 675 650 621 606 q 794 693 730 693 q 954 613 888 693 q 1019 414 1019 532 q 961 213 1019 290 q 810 136 903 136 q 694 176 747 136 q 582 310 642 216 z "},"±":{"ha":1157,"x_min":172,"x_max":985,"o":"m 172 134 l 985 134 l 985 -1 l 172 -1 l 172 134 m 510 829 l 647 829 l 647 608 l 985 608 l 985 473 l 647 473 l 647 253 l 510 253 l 510 473 l 172 473 l 172 608 l 510 608 l 510 829 z "},"≤":{"ha":1157,"x_min":175,"x_max":983,"o":"m 175 132 l 983 132 l 983 -1 l 175 -1 l 175 132 m 982 842 l 982 700 l 416 521 l 982 343 l 982 201 l 175 463 l 175 581 l 982 842 z "},"≥":{"ha":1157,"x_min":175,"x_max":983,"o":"m 175 132 l 983 132 l 983 -1 l 175 -1 l 175 132 m 176 842 l 982 581 l 982 463 l 176 201 l 176 343 l 741 521 l 176 700 l 176 842 z "},"¥":{"ha":957,"x_min":7,"x_max":951,"o":"m 302 1010 l 489 606 l 677 1010 l 951 1010 l 765 657 l 935 657 l 935 576 l 722 576 l 647 435 l 935 435 l 935 354 l 606 354 l 606 0 l 354 0 l 354 354 l 22 354 l 22 435 l 313 435 l 237 576 l 22 576 l 22 657 l 193 657 l 7 1010 l 302 1010 z "},"µ":{"ha":847,"x_min":-43,"x_max":803,"o":"m 139 741 l 335 741 l 283 446 q 268 343 273 391 q 262 264 262 294 q 291 170 262 201 q 378 139 319 139 q 483 195 446 139 q 546 392 521 250 l 607 741 l 803 741 l 672 0 l 490 0 l 503 79 q 439 2 474 26 q 357 -22 404 -22 q 276 -2 311 -22 q 212 60 241 18 l 151 -297 l -43 -297 l 139 741 z "},"∂":{"ha":742,"x_min":52,"x_max":693,"o":"m 517 449 q 536 577 530 516 q 543 682 543 637 q 526 789 543 750 q 478 828 508 828 q 379 779 448 828 q 271 729 310 729 q 222 749 242 729 q 203 799 203 770 q 261 879 203 842 q 404 916 320 916 q 614 806 534 916 q 693 513 693 696 q 587 133 693 283 q 318 -17 481 -17 q 127 61 202 -17 q 52 258 52 138 q 130 482 52 393 q 325 571 209 571 q 440 542 394 571 q 517 449 486 512 m 475 351 q 449 472 475 430 q 374 514 422 514 q 260 423 305 514 q 215 192 215 332 q 241 72 215 113 q 317 31 267 31 q 430 121 385 31 q 475 351 475 212 z "},"∑":{"ha":997,"x_min":28,"x_max":968,"o":"m 45 999 l 932 999 l 932 819 l 336 819 l 757 382 l 335 -86 l 968 -86 l 968 -267 l 28 -267 l 28 -150 l 501 374 l 45 842 l 45 999 z "},"∏":{"ha":1093,"x_min":102,"x_max":989,"o":"m 102 999 l 989 999 l 989 -267 l 755 -267 l 755 803 l 335 803 l 335 -267 l 102 -267 l 102 999 z "},"π":{"ha":895,"x_min":-24,"x_max":918,"o":"m 918 741 l 892 589 l 772 589 l 668 0 l 473 0 l 576 589 l 415 589 l 313 0 l 118 0 l 221 589 l 204 589 q 147 568 167 589 q 121 500 127 547 l -24 500 q 60 688 -4 635 q 271 741 123 741 l 918 741 z "},"∫":{"ha":804,"x_min":33,"x_max":771,"o":"m 232 -171 q 314 262 301 -171 q 318 406 316 355 q 401 902 329 750 q 624 1054 474 1054 q 731 1021 690 1054 q 771 933 771 987 q 745 868 771 892 q 677 843 720 843 q 625 859 646 843 q 597 905 604 876 q 593 942 594 919 q 572 974 591 973 q 492 545 505 974 q 488 424 489 466 q 467 122 480 223 q 427 -47 453 22 q 326 -200 389 -148 q 180 -253 263 -253 q 74 -220 115 -253 q 33 -134 33 -186 q 60 -66 33 -92 q 131 -41 86 -41 q 189 -63 165 -41 q 212 -111 212 -84 q 216 -161 212 -151 q 232 -171 220 -171 z "},"ª":{"ha":610,"x_min":49,"x_max":543,"o":"m 273 612 l 319 612 q 358 623 345 612 q 371 656 371 633 l 371 682 q 358 714 371 704 q 319 725 345 725 l 273 725 q 234 714 247 725 q 221 682 221 703 l 221 656 q 234 623 221 634 q 273 612 247 612 m 74 882 q 115 985 74 954 q 254 1017 157 1017 l 336 1017 q 496 979 448 1017 q 543 851 543 941 l 543 510 l 372 510 l 372 555 q 321 516 351 529 q 253 503 292 503 l 191 503 q 85 539 122 503 q 49 642 49 575 l 49 689 q 91 788 49 753 q 211 822 132 822 l 257 822 q 324 811 295 822 q 372 778 353 800 l 372 875 q 361 908 372 898 q 325 918 350 918 l 296 918 q 254 910 265 918 q 243 882 243 902 l 74 882 z "},"º":{"ha":593,"x_min":49,"x_max":545,"o":"m 222 800 l 222 720 q 235 638 222 654 q 286 623 248 623 l 307 623 q 358 638 345 623 q 371 720 371 654 l 371 800 q 358 882 371 866 q 307 897 345 897 l 286 897 q 235 881 248 897 q 222 800 222 865 m 49 811 q 96 971 49 925 q 261 1017 144 1017 l 332 1017 q 497 971 449 1017 q 545 811 545 925 l 545 708 q 497 548 545 594 q 332 503 449 503 l 261 503 q 96 548 144 503 q 49 708 49 594 l 49 811 z "},"Ω":{"ha":1068,"x_min":37,"x_max":1029,"o":"m 832 174 l 1029 174 l 1029 0 l 616 0 l 616 197 q 747 345 702 256 q 791 546 791 434 q 723 763 791 684 q 533 842 654 842 q 344 763 413 842 q 275 546 275 684 q 320 345 275 435 q 450 197 365 255 l 450 0 l 37 0 l 37 174 l 235 174 q 108 350 149 256 q 66 555 66 444 q 194 896 66 768 q 533 1023 321 1023 q 873 896 745 1023 q 1000 555 1000 768 q 959 350 1000 444 q 832 174 918 256 z "},"æ":{"ha":1211,"x_min":64,"x_max":1146,"o":"m 711 437 l 924 437 l 924 463 q 905 557 924 534 q 832 581 886 581 l 803 581 q 730 558 749 581 q 711 469 711 535 l 711 437 m 97 532 q 154 679 98 635 q 339 724 210 724 l 447 724 q 549 710 513 724 q 614 664 586 696 q 671 710 637 696 q 766 724 705 724 l 863 724 q 1082 658 1019 724 q 1146 431 1146 593 l 1146 318 l 711 318 l 711 231 q 729 165 711 184 q 790 146 747 146 l 802 146 l 829 146 q 897 162 878 146 q 920 218 916 178 l 1143 218 q 1069 44 1135 97 q 863 -9 1004 -9 l 766 -9 q 611 14 669 -9 q 521 87 553 37 q 439 14 484 37 q 336 -9 395 -9 l 254 -9 q 113 42 163 -9 q 64 189 64 94 l 64 256 q 120 397 64 348 q 281 447 176 447 l 343 447 q 431 430 392 447 q 496 382 471 414 l 496 521 q 481 569 496 554 q 433 583 467 583 l 395 583 q 338 572 353 583 q 323 532 323 561 l 97 532 m 364 146 l 427 146 q 477 161 460 146 q 494 208 494 177 l 494 245 q 477 293 494 277 q 427 309 460 309 l 364 309 q 312 293 330 309 q 294 245 294 277 l 294 208 q 312 161 294 177 q 364 146 330 146 z "},"ø":{"ha":790,"x_min":11,"x_max":779,"o":"m 296 334 l 485 517 q 460 545 477 536 q 410 553 443 553 l 382 553 q 313 530 330 553 q 296 414 296 507 l 296 334 m 494 390 l 302 205 q 327 171 309 181 q 382 161 345 161 l 410 161 q 477 184 460 161 q 494 300 494 206 l 494 390 m 64 431 q 127 658 64 593 q 347 724 191 724 l 443 724 q 566 712 518 724 q 647 673 614 700 l 713 737 l 779 668 l 704 595 q 721 526 715 566 q 726 431 726 487 l 726 283 q 663 56 726 121 q 443 -9 600 -9 l 347 -9 q 216 4 266 -9 q 138 49 167 18 l 79 -9 l 11 60 l 82 127 q 68 194 73 155 q 64 283 64 233 l 64 431 z "},"¿":{"ha":799,"x_min":53,"x_max":734,"o":"m 734 271 l 734 211 q 666 48 734 106 q 473 -9 598 -9 l 314 -9 q 122 47 192 -9 q 53 201 53 104 l 53 300 q 62 360 53 329 q 86 418 71 392 q 229 528 115 467 q 264 547 252 541 q 301 579 289 561 q 313 621 313 597 l 313 652 l 551 652 l 551 571 q 531 474 551 511 q 461 410 511 437 l 343 347 q 305 320 317 333 q 293 292 293 307 l 293 229 q 310 185 293 200 q 361 171 327 171 l 421 171 q 479 187 459 171 q 498 233 498 203 l 498 271 l 734 271 m 551 1013 l 551 771 l 313 771 l 313 1013 l 551 1013 z "},"¡":{"ha":486,"x_min":132,"x_max":354,"o":"m 132 1010 l 354 1010 l 354 768 l 132 768 l 132 1010 m 132 607 l 354 607 l 354 0 l 132 0 l 132 607 z "},"¬":{"ha":1157,"x_min":172,"x_max":985,"o":"m 172 586 l 985 586 l 985 245 l 850 245 l 850 453 l 172 453 l 172 586 z "},"√":{"ha":913,"x_min":49,"x_max":914,"o":"m 774 1149 l 914 1149 l 914 1061 l 844 1061 l 443 -28 l 375 -28 l 164 554 l 69 519 l 49 596 l 273 675 l 433 227 l 774 1149 z "},"ƒ":{"ha":971,"x_min":11,"x_max":869,"o":"m 11 -243 l 12 -50 q 59 -55 40 -54 q 93 -57 78 -57 q 203 -27 165 -57 q 254 72 241 3 l 334 482 l 165 482 l 165 636 l 361 636 q 472 934 390 845 q 720 1023 555 1023 q 762 1022 743 1023 q 798 1019 781 1021 l 869 1010 l 869 815 q 814 824 839 821 q 770 827 790 827 q 682 799 717 827 q 635 721 647 772 l 615 636 l 789 636 l 789 482 l 589 482 l 496 11 q 386 -190 470 -119 q 171 -260 301 -260 q 138 -259 155 -260 q 103 -256 121 -258 l 11 -243 z "},"≈":{"ha":1157,"x_min":121,"x_max":1038,"o":"m 1038 404 l 1038 256 q 903 184 966 207 q 781 161 841 161 q 586 207 716 161 q 382 252 456 252 q 263 227 325 252 q 121 144 202 201 l 121 293 q 261 366 196 342 q 383 390 326 390 q 597 346 467 390 q 783 301 727 301 q 901 325 842 301 q 1038 404 961 349 m 1038 684 l 1038 534 q 904 464 966 486 q 782 441 843 441 q 588 486 718 441 q 382 530 458 530 q 267 507 326 530 q 121 424 207 483 l 121 572 q 259 645 193 621 q 383 669 325 669 q 598 625 468 669 q 783 581 728 581 q 899 604 840 581 q 1038 684 958 628 z "},"∆":{"ha":968,"x_min":0,"x_max":968,"o":"m 484 753 l 262 174 l 705 174 l 484 753 m 382 999 l 586 999 l 968 0 l 0 0 l 382 999 z "},"«":{"ha":669,"x_min":66,"x_max":603,"o":"m 315 367 l 456 572 l 603 572 l 464 367 l 603 161 l 456 161 l 315 367 m 66 367 l 208 572 l 354 572 l 215 367 l 354 161 l 208 161 l 66 367 z "},"»":{"ha":669,"x_min":66,"x_max":603,"o":"m 354 367 l 212 161 l 66 161 l 205 367 l 66 572 l 212 572 l 354 367 m 603 367 l 461 161 l 315 161 l 454 367 l 315 572 l 461 572 l 603 367 z "},"…":{"ha":1389,"x_min":121,"x_max":1270,"o":"m 121 0 l 121 241 l 343 241 l 343 0 l 121 0 m 584 0 l 584 241 l 806 241 l 806 0 l 584 0 m 1048 0 l 1048 241 l 1270 241 l 1270 0 l 1048 0 z "}," ":{"ha":971,"x_min":0,"x_max":0,"o":""},"À":{"ha":1042,"x_min":26,"x_max":1017,"o":"m 412 382 l 633 382 l 533 800 l 515 800 l 412 382 m 26 0 l 317 1010 l 733 1010 l 1017 0 l 726 0 l 681 176 l 363 176 l 317 0 l 26 0 m 322 1345 l 497 1345 l 631 1095 l 534 1095 l 322 1345 z "},"Ã":{"ha":1042,"x_min":26,"x_max":1017,"o":"m 412 382 l 633 382 l 533 800 l 515 800 l 412 382 m 26 0 l 317 1010 l 733 1010 l 1017 0 l 726 0 l 681 176 l 363 176 l 317 0 l 26 0 m 736 1312 q 684 1187 718 1227 q 595 1147 649 1147 q 571 1149 583 1147 q 545 1156 558 1152 l 485 1172 q 461 1177 472 1175 q 440 1179 450 1179 q 403 1167 417 1179 q 380 1126 389 1154 l 306 1126 q 356 1247 322 1208 q 444 1286 390 1286 q 475 1284 461 1286 q 503 1278 489 1282 l 566 1259 q 583 1255 574 1257 q 603 1254 592 1254 q 639 1269 625 1254 q 661 1312 654 1283 l 736 1312 z "},"Õ":{"ha":1048,"x_min":71,"x_max":978,"o":"m 347 587 l 347 421 q 376 258 347 292 q 498 225 406 225 l 549 225 q 671 259 642 225 q 701 421 701 293 l 701 587 q 671 750 701 716 q 549 785 642 785 l 498 785 q 377 751 406 785 q 347 587 347 717 m 71 610 q 157 931 71 840 q 457 1022 243 1022 l 590 1022 q 891 930 805 1022 q 978 610 978 839 l 978 400 q 891 79 978 171 q 590 -12 805 -12 l 457 -12 q 157 79 243 -12 q 71 400 71 170 l 71 610 m 740 1312 q 688 1187 722 1227 q 599 1147 653 1147 q 575 1149 587 1147 q 549 1156 562 1152 l 489 1172 q 465 1177 476 1175 q 444 1179 454 1179 q 407 1167 421 1179 q 385 1126 393 1154 l 310 1126 q 360 1247 326 1208 q 448 1286 394 1286 q 479 1284 465 1286 q 507 1278 493 1282 l 570 1259 q 587 1255 578 1257 q 607 1254 596 1254 q 643 1269 629 1254 q 665 1312 658 1283 l 740 1312 z "},"Œ":{"ha":1404,"x_min":71,"x_max":1336,"o":"m 724 117 q 618 18 682 47 q 441 -12 554 -12 q 155 81 240 -12 q 71 400 71 174 l 71 610 q 155 927 71 832 q 433 1022 239 1022 q 608 995 541 1022 q 724 905 675 968 l 724 1010 l 1325 1010 l 1325 790 l 960 790 l 960 607 l 1308 607 l 1308 418 l 960 418 l 960 218 l 1336 218 l 1336 0 l 724 0 l 724 117 m 347 591 l 347 416 q 376 248 347 282 q 498 214 406 214 l 549 214 q 672 248 642 214 q 701 416 701 283 l 701 591 q 672 761 701 726 q 549 796 642 796 l 498 796 q 376 758 405 796 q 347 591 347 720 z "},"œ":{"ha":1242,"x_min":64,"x_max":1178,"o":"m 864 581 l 829 581 q 755 557 775 581 q 736 467 736 534 l 736 437 l 956 437 l 956 463 q 937 557 956 534 q 864 581 918 581 m 863 143 q 929 160 909 143 q 953 218 949 176 l 1175 218 q 1103 45 1170 99 q 896 -9 1036 -9 l 782 -9 q 672 15 710 -9 q 619 96 633 40 q 553 17 600 43 q 433 -9 506 -9 l 347 -9 q 127 56 191 -9 q 64 283 64 121 l 64 431 q 127 658 64 593 q 347 724 191 724 l 433 724 q 554 702 511 724 q 619 631 597 680 q 687 700 640 676 q 806 724 734 724 l 896 724 q 1115 659 1052 724 q 1178 431 1178 593 l 1178 318 l 736 318 l 736 231 q 756 163 736 182 q 828 143 777 143 l 863 143 m 296 414 l 296 300 q 314 185 296 208 q 389 161 333 161 l 418 161 q 493 185 474 161 q 511 300 511 208 l 511 414 q 493 530 511 507 q 418 553 474 553 l 387 553 q 314 530 332 553 q 296 414 296 507 z "},"–":{"ha":694,"x_min":0,"x_max":694,"o":"m 0 293 l 0 440 l 694 440 l 694 293 l 0 293 z "},"—":{"ha":1389,"x_min":0,"x_max":1389,"o":"m 0 440 l 1389 440 l 1389 293 l 0 293 l 0 440 z "},"“":{"ha":785,"x_min":119,"x_max":664,"o":"m 664 832 l 664 607 l 457 607 l 457 854 q 505 971 457 932 q 648 1010 552 1010 l 664 1010 l 664 911 l 656 911 q 607 897 623 911 q 591 852 591 882 q 592 841 591 845 q 593 832 592 837 l 664 832 m 328 832 l 328 607 l 119 607 l 119 854 q 168 971 119 932 q 313 1010 216 1010 l 328 1010 l 328 911 l 319 911 q 270 897 286 911 q 254 852 254 883 q 255 840 254 844 q 256 832 255 836 l 328 832 z "},"”":{"ha":785,"x_min":119,"x_max":664,"o":"m 456 785 l 456 1010 l 664 1010 l 664 762 q 616 646 664 684 q 471 607 568 607 l 456 607 l 456 704 l 464 704 q 513 719 497 704 q 529 764 529 734 q 529 777 529 772 q 528 785 528 781 l 456 785 m 119 785 l 119 1010 l 328 1010 l 328 762 q 280 646 328 684 q 135 607 232 607 l 119 607 l 119 704 l 127 704 q 176 719 160 704 q 192 764 192 734 q 192 775 192 771 q 190 785 191 780 l 119 785 z "},"‘":{"ha":467,"x_min":119,"x_max":328,"o":"m 328 832 l 328 607 l 119 607 l 119 854 q 168 971 119 932 q 313 1010 216 1010 l 328 1010 l 328 911 l 319 911 q 270 897 286 911 q 254 852 254 883 q 255 840 254 844 q 256 832 255 836 l 328 832 z "},"’":{"ha":467,"x_min":119,"x_max":328,"o":"m 119 785 l 119 1010 l 328 1010 l 328 762 q 280 646 328 684 q 135 607 232 607 l 119 607 l 119 704 l 127 704 q 176 719 160 704 q 192 764 192 734 q 192 775 192 771 q 190 785 191 780 l 119 785 z "},"÷":{"ha":1157,"x_min":172,"x_max":985,"o":"m 579 250 q 652 220 621 250 q 682 147 682 189 q 652 76 682 106 q 579 46 621 46 q 506 75 536 46 q 476 147 476 104 q 506 220 476 190 q 579 250 536 250 m 172 482 l 985 482 l 985 347 l 172 347 l 172 482 m 579 783 q 652 753 621 783 q 682 681 682 723 q 652 608 682 638 q 579 578 622 578 q 506 608 536 578 q 476 681 476 638 q 506 753 476 724 q 579 783 536 783 z "},"◊":{"ha":686,"x_min":4,"x_max":682,"o":"m 343 956 l 82 401 l 343 -158 l 604 401 l 343 956 m 343 1121 l 682 401 l 343 -323 l 4 401 l 343 1121 z "},"ÿ":{"ha":758,"x_min":8,"x_max":745,"o":"m 207 8 l 8 714 l 244 714 l 382 183 l 501 714 l 745 714 l 521 -93 q 440 -237 492 -198 q 289 -275 389 -275 q 183 -269 258 -275 q 165 -267 171 -267 l 165 -107 l 215 -107 q 275 -89 248 -107 q 309 -46 302 -71 l 322 8 l 207 8 m 420 839 l 420 1006 l 574 1006 l 574 839 l 420 839 m 184 839 l 184 1006 l 338 1006 l 338 839 l 184 839 z "},"Ÿ":{"ha":957,"x_min":-3,"x_max":961,"o":"m -3 1010 l 302 1010 l 482 621 l 659 1010 l 961 1010 l 615 354 l 615 0 l 345 0 l 345 354 l -3 1010 m 521 1135 l 521 1301 l 674 1301 l 674 1135 l 521 1135 m 285 1135 l 285 1301 l 438 1301 l 438 1135 l 285 1135 z "},"∕":{"ha":232,"x_min":-232,"x_max":463,"o":"m -232 -12 l 349 1022 l 463 1022 l -118 -12 l -232 -12 z "},"¤":{"ha":971,"x_min":22,"x_max":900,"o":"m 900 277 q 819 55 900 121 q 553 -12 737 -12 l 476 -12 q 208 72 288 -12 q 123 364 129 157 l 22 364 l 49 443 l 123 443 l 123 567 l 22 567 l 47 646 l 123 646 q 208 938 129 853 q 476 1022 288 1022 l 546 1022 q 812 955 730 1022 q 893 733 893 888 l 893 714 l 647 714 l 647 732 q 615 798 647 777 q 517 819 583 819 q 411 787 438 819 q 383 646 385 755 l 704 646 l 679 567 l 383 567 l 383 443 l 639 443 l 612 364 l 383 363 q 411 222 385 254 q 517 191 438 191 q 616 212 583 191 q 648 278 648 234 l 648 296 l 900 296 l 900 277 z "},"‹":{"ha":421,"x_min":66,"x_max":355,"o":"m 208 161 l 66 367 l 208 572 l 355 572 l 216 367 l 355 161 l 208 161 z "},"›":{"ha":421,"x_min":66,"x_max":355,"o":"m 214 572 l 355 367 l 214 161 l 66 161 l 205 367 l 66 572 l 214 572 z "},"":{"ha":864,"x_min":35,"x_max":770,"o":"m 113 0 l 113 541 l 35 541 l 35 714 l 113 714 q 112 734 112 723 q 111 766 111 745 q 162 951 111 893 q 325 1010 214 1010 l 471 1010 l 471 843 l 439 843 q 366 829 388 843 q 343 782 343 814 l 343 714 l 471 714 l 471 541 l 343 541 l 343 0 l 113 0 m 541 832 l 541 1010 l 770 1010 l 770 832 l 541 832 m 541 0 l 541 714 l 770 714 l 770 0 l 541 0 z "},"ﬁ":{"ha":864,"x_min":35,"x_max":770,"o":"m 113 0 l 113 541 l 35 541 l 35 714 l 113 714 q 112 734 112 723 q 111 766 111 745 q 162 951 111 893 q 325 1010 214 1010 l 471 1010 l 471 843 l 439 843 q 366 829 388 843 q 343 782 343 814 l 343 714 l 471 714 l 471 541 l 343 541 l 343 0 l 113 0 m 541 832 l 541 1010 l 770 1010 l 770 832 l 541 832 m 541 0 l 541 714 l 770 714 l 770 0 l 541 0 z "},"":{"ha":864,"x_min":35,"x_max":770,"o":"m 113 0 l 113 541 l 35 541 l 35 714 l 113 714 q 112 734 112 723 q 111 766 111 745 q 162 951 111 893 q 325 1010 214 1010 l 471 1010 l 471 843 l 439 843 q 366 829 388 843 q 343 782 343 814 l 343 714 l 471 714 l 471 541 l 343 541 l 343 0 l 113 0 m 541 0 l 541 1010 l 770 1010 l 770 0 l 541 0 z "},"ﬂ":{"ha":864,"x_min":35,"x_max":770,"o":"m 113 0 l 113 541 l 35 541 l 35 714 l 113 714 q 112 734 112 723 q 111 766 111 745 q 162 951 111 893 q 325 1010 214 1010 l 471 1010 l 471 843 l 439 843 q 366 829 388 843 q 343 782 343 814 l 343 714 l 471 714 l 471 541 l 343 541 l 343 0 l 113 0 m 541 0 l 541 1010 l 770 1010 l 770 0 l 541 0 z "},"‡":{"ha":711,"x_min":62,"x_max":647,"o":"m 239 0 l 239 193 l 62 193 l 62 386 l 239 386 l 239 631 l 62 631 l 62 821 l 239 821 l 239 1010 l 471 1010 l 471 821 l 647 821 l 647 631 l 471 631 l 471 386 l 647 386 l 647 193 l 471 193 l 471 0 l 239 0 z "},"·":{"ha":486,"x_min":114,"x_max":371,"o":"m 114 514 q 151 606 114 570 q 244 643 188 643 q 336 607 300 643 q 371 514 371 570 q 336 423 371 460 q 249 386 300 386 q 151 421 189 386 q 114 514 114 457 z "},"‚":{"ha":467,"x_min":119,"x_max":328,"o":"m 119 0 l 119 225 l 328 225 l 328 -24 q 280 -140 328 -102 q 135 -178 232 -178 l 119 -178 l 119 -81 l 127 -81 q 176 -66 160 -81 q 192 -21 192 -51 q 192 -9 192 -14 q 190 0 191 -5 l 119 0 z "},"„":{"ha":785,"x_min":119,"x_max":664,"o":"m 456 0 l 456 225 l 664 225 l 664 -24 q 616 -140 664 -102 q 471 -178 568 -178 l 456 -178 l 456 -81 l 464 -81 q 513 -66 497 -81 q 529 -21 529 -51 q 529 -8 529 -12 q 528 0 528 -3 l 456 0 m 119 0 l 119 225 l 328 225 l 328 -24 q 280 -140 328 -102 q 135 -178 232 -178 l 119 -178 l 119 -81 l 127 -81 q 176 -66 160 -81 q 192 -21 192 -51 q 192 -9 192 -14 q 190 0 191 -5 l 119 0 z "},"‰":{"ha":2179,"x_min":60,"x_max":2114,"o":"m 1845 143 l 1867 143 q 1918 163 1905 143 q 1931 261 1931 182 l 1931 399 q 1918 497 1931 476 q 1867 518 1904 518 l 1845 518 q 1795 498 1807 518 q 1782 399 1782 477 l 1782 261 q 1794 163 1782 182 q 1845 143 1807 143 m 1822 -12 q 1646 38 1695 -12 q 1596 216 1596 88 l 1596 443 q 1646 622 1596 571 q 1822 672 1696 672 l 1887 672 q 2064 622 2013 672 q 2114 443 2114 572 l 2114 216 q 2064 38 2114 87 q 1887 -12 2015 -12 l 1822 -12 m 1189 143 l 1211 143 q 1261 162 1249 143 q 1274 261 1274 181 l 1274 399 q 1261 498 1274 477 q 1211 518 1248 518 l 1189 518 q 1139 498 1152 518 q 1126 399 1126 477 l 1126 261 q 1139 163 1126 182 q 1189 143 1151 143 m 1166 -12 q 990 38 1040 -12 q 940 216 940 88 l 940 443 q 990 622 940 571 q 1166 672 1040 672 l 1232 672 q 1408 622 1358 672 q 1458 443 1458 572 l 1458 216 q 1409 38 1458 87 q 1232 -12 1359 -12 l 1166 -12 m 309 493 l 330 493 q 380 512 368 493 q 393 612 393 532 l 393 749 q 380 848 393 827 q 330 868 368 868 l 309 868 q 258 848 271 868 q 245 749 245 828 l 245 612 q 258 513 245 533 q 309 493 271 493 m 286 338 q 110 388 159 338 q 60 567 60 438 l 60 793 q 110 971 60 921 q 286 1022 160 1022 l 351 1022 q 528 972 477 1022 q 578 793 578 922 l 578 567 q 528 388 578 437 q 351 338 478 338 l 286 338 m 412 -12 l 994 1022 l 1107 1022 l 526 -12 l 412 -12 z "},"Â":{"ha":1042,"x_min":26,"x_max":1017,"o":"m 412 382 l 633 382 l 533 800 l 515 800 l 412 382 m 26 0 l 317 1010 l 733 1010 l 1017 0 l 726 0 l 681 176 l 363 176 l 317 0 l 26 0 m 307 1095 l 440 1345 l 602 1345 l 734 1095 l 639 1095 l 521 1242 l 401 1095 l 307 1095 z "},"Ê":{"ha":954,"x_min":103,"x_max":872,"o":"m 103 0 l 103 1010 l 861 1010 l 861 785 l 374 785 l 374 610 l 847 610 l 847 415 l 374 415 l 374 225 l 872 225 l 872 0 l 103 0 m 274 1095 l 407 1345 l 568 1345 l 701 1095 l 606 1095 l 488 1242 l 368 1095 l 274 1095 z "},"Á":{"ha":1042,"x_min":26,"x_max":1017,"o":"m 412 382 l 633 382 l 533 800 l 515 800 l 412 382 m 26 0 l 317 1010 l 733 1010 l 1017 0 l 726 0 l 681 176 l 363 176 l 317 0 l 26 0 m 720 1345 l 507 1095 l 411 1095 l 545 1345 l 720 1345 z "},"Ë":{"ha":954,"x_min":103,"x_max":872,"o":"m 103 0 l 103 1010 l 861 1010 l 861 785 l 374 785 l 374 610 l 847 610 l 847 415 l 374 415 l 374 225 l 872 225 l 872 0 l 103 0 m 529 1135 l 529 1301 l 682 1301 l 682 1135 l 529 1135 m 293 1135 l 293 1301 l 446 1301 l 446 1135 l 293 1135 z "},"È":{"ha":954,"x_min":103,"x_max":872,"o":"m 103 0 l 103 1010 l 861 1010 l 861 785 l 374 785 l 374 610 l 847 610 l 847 415 l 374 415 l 374 225 l 872 225 l 872 0 l 103 0 m 289 1345 l 464 1345 l 597 1095 l 501 1095 l 289 1345 z "},"Í":{"ha":494,"x_min":111,"x_max":446,"o":"m 111 0 l 111 1010 l 385 1010 l 385 0 l 111 0 m 446 1345 l 234 1095 l 138 1095 l 271 1345 l 446 1345 z "},"Î":{"ha":494,"x_min":34,"x_max":461,"o":"m 111 0 l 111 1010 l 385 1010 l 385 0 l 111 0 m 34 1095 l 167 1345 l 328 1345 l 461 1095 l 366 1095 l 248 1242 l 128 1095 l 34 1095 z "},"Ï":{"ha":494,"x_min":53,"x_max":442,"o":"m 111 0 l 111 1010 l 385 1010 l 385 0 l 111 0 m 289 1135 l 289 1301 l 442 1301 l 442 1135 l 289 1135 m 53 1135 l 53 1301 l 206 1301 l 206 1135 l 53 1135 z "},"Ì":{"ha":494,"x_min":49,"x_max":385,"o":"m 111 0 l 111 1010 l 385 1010 l 385 0 l 111 0 m 49 1345 l 224 1345 l 357 1095 l 261 1095 l 49 1345 z "},"Ó":{"ha":1048,"x_min":71,"x_max":978,"o":"m 347 587 l 347 421 q 376 258 347 292 q 498 225 406 225 l 549 225 q 671 259 642 225 q 701 421 701 293 l 701 587 q 671 750 701 716 q 549 785 642 785 l 498 785 q 377 751 406 785 q 347 587 347 717 m 71 610 q 157 931 71 840 q 457 1022 243 1022 l 590 1022 q 891 930 805 1022 q 978 610 978 839 l 978 400 q 891 79 978 171 q 590 -12 805 -12 l 457 -12 q 157 79 243 -12 q 71 400 71 170 l 71 610 m 724 1345 l 511 1095 l 415 1095 l 549 1345 l 724 1345 z "},"Ô":{"ha":1048,"x_min":71,"x_max":978,"o":"m 347 587 l 347 421 q 376 258 347 292 q 498 225 406 225 l 549 225 q 671 259 642 225 q 701 421 701 293 l 701 587 q 671 750 701 716 q 549 785 642 785 l 498 785 q 377 751 406 785 q 347 587 347 717 m 71 610 q 157 931 71 840 q 457 1022 243 1022 l 590 1022 q 891 930 805 1022 q 978 610 978 839 l 978 400 q 891 79 978 171 q 590 -12 805 -12 l 457 -12 q 157 79 243 -12 q 71 400 71 170 l 71 610 m 311 1095 l 444 1345 l 606 1345 l 739 1095 l 643 1095 l 525 1242 l 406 1095 l 311 1095 z "},"":{"ha":1097,"x_min":77,"x_max":1021,"o":"m 567 825 q 566 834 566 829 q 566 850 566 840 q 630 1005 566 934 q 790 1095 694 1077 q 791 1079 791 1088 q 791 1053 791 1070 q 721 893 791 964 q 583 823 651 823 l 578 823 q 573 824 576 823 q 567 825 570 825 m 1021 273 q 882 41 943 106 q 743 -24 820 -24 q 654 -1 709 -24 q 571 21 599 21 q 482 -1 541 21 q 396 -24 424 -24 q 309 6 353 -24 q 221 96 265 36 q 114 296 152 191 q 77 500 77 401 q 161 742 77 648 q 380 835 246 835 q 486 812 427 835 q 570 789 545 789 q 652 812 593 789 q 755 836 711 836 q 890 809 830 836 q 999 725 949 782 q 896 626 930 681 q 863 503 863 572 q 903 367 863 426 q 1021 273 944 308 z "},"Ò":{"ha":1048,"x_min":71,"x_max":978,"o":"m 347 587 l 347 421 q 376 258 347 292 q 498 225 406 225 l 549 225 q 671 259 642 225 q 701 421 701 293 l 701 587 q 671 750 701 716 q 549 785 642 785 l 498 785 q 377 751 406 785 q 347 587 347 717 m 71 610 q 157 931 71 840 q 457 1022 243 1022 l 590 1022 q 891 930 805 1022 q 978 610 978 839 l 978 400 q 891 79 978 171 q 590 -12 805 -12 l 457 -12 q 157 79 243 -12 q 71 400 71 170 l 71 610 m 326 1345 l 501 1345 l 635 1095 l 538 1095 l 326 1345 z "},"Ú":{"ha":1076,"x_min":87,"x_max":989,"o":"m 87 1010 l 357 1010 l 357 421 q 388 262 357 298 q 514 225 418 225 l 564 225 q 689 261 659 225 q 720 421 720 297 l 720 1010 l 989 1010 l 989 400 q 972 201 989 264 q 916 90 956 137 q 797 12 868 35 q 606 -12 726 -12 l 472 -12 q 280 12 351 -12 q 163 90 210 35 q 105 202 122 138 q 87 400 87 267 l 87 1010 m 738 1345 l 526 1095 l 429 1095 l 563 1345 l 738 1345 z "},"Û":{"ha":1076,"x_min":87,"x_max":989,"o":"m 87 1010 l 357 1010 l 357 421 q 388 262 357 298 q 514 225 418 225 l 564 225 q 689 261 659 225 q 720 421 720 297 l 720 1010 l 989 1010 l 989 400 q 972 201 989 264 q 916 90 956 137 q 797 12 868 35 q 606 -12 726 -12 l 472 -12 q 280 12 351 -12 q 163 90 210 35 q 105 202 122 138 q 87 400 87 267 l 87 1010 m 326 1095 l 458 1345 l 620 1345 l 753 1095 l 657 1095 l 539 1242 l 420 1095 l 326 1095 z "},"Ù":{"ha":1076,"x_min":87,"x_max":989,"o":"m 87 1010 l 357 1010 l 357 421 q 388 262 357 298 q 514 225 418 225 l 564 225 q 689 261 659 225 q 720 421 720 297 l 720 1010 l 989 1010 l 989 400 q 972 201 989 264 q 916 90 956 137 q 797 12 868 35 q 606 -12 726 -12 l 472 -12 q 280 12 351 -12 q 163 90 210 35 q 105 202 122 138 q 87 400 87 267 l 87 1010 m 340 1345 l 515 1345 l 649 1095 l 553 1095 l 340 1345 z "},"ı":{"ha":422,"x_min":96,"x_max":326,"o":"m 96 0 l 96 714 l 326 714 l 326 0 l 96 0 z "},"ˆ":{"ha":694,"x_min":134,"x_max":561,"o":"m 134 799 l 267 1050 l 428 1050 l 561 799 l 465 799 l 347 946 l 228 799 l 134 799 z "},"˜":{"ha":694,"x_min":132,"x_max":562,"o":"m 562 1017 q 510 891 545 932 q 421 851 475 851 q 397 853 410 851 q 371 860 385 856 l 311 876 q 288 881 298 880 q 267 884 277 883 q 229 871 243 884 q 207 831 215 859 l 132 831 q 182 951 149 913 q 271 990 216 990 q 301 988 288 990 q 329 982 315 986 l 392 964 q 409 960 400 961 q 429 958 418 958 q 466 973 451 958 q 488 1017 480 987 l 562 1017 z "},"¯":{"ha":694,"x_min":153,"x_max":542,"o":"m 153 869 l 153 975 l 542 975 l 542 869 l 153 869 z "},"˘":{"ha":694,"x_min":138,"x_max":555,"o":"m 138 1026 l 221 1026 q 255 950 225 975 q 347 926 286 926 q 438 950 408 926 q 472 1026 468 974 l 555 1026 q 498 870 548 920 q 347 821 448 821 q 196 871 248 821 q 138 1026 145 921 z "},"˙":{"ha":694,"x_min":268,"x_max":428,"o":"m 268 835 l 268 1010 l 428 1010 l 428 835 l 268 835 z "},"˚":{"ha":694,"x_min":168,"x_max":528,"o":"m 265 953 q 289 894 265 918 q 347 871 312 871 q 407 895 382 871 q 431 953 431 918 q 406 1012 431 987 q 347 1036 382 1036 q 289 1012 312 1036 q 265 953 265 988 m 168 954 q 220 1081 168 1029 q 347 1133 271 1133 q 475 1081 423 1133 q 528 954 528 1029 q 475 825 528 878 q 347 772 423 772 q 220 825 272 772 q 168 954 168 878 z "},"¸":{"ha":694,"x_min":214,"x_max":551,"o":"m 214 -326 l 214 -239 l 376 -239 q 421 -228 409 -239 q 433 -189 433 -218 q 421 -154 433 -164 q 380 -143 409 -143 l 313 -143 l 313 0 l 382 0 l 382 -66 l 449 -66 q 526 -97 501 -66 q 551 -191 551 -127 q 515 -298 551 -269 q 372 -326 478 -326 l 214 -326 z "},"˝":{"ha":694,"x_min":200,"x_max":642,"o":"m 382 799 l 486 1050 l 642 1050 l 458 799 l 382 799 m 200 799 l 278 1050 l 428 1050 l 271 799 l 200 799 z "},"˛":{"ha":694,"x_min":279,"x_max":463,"o":"m 457 0 l 412 -79 q 398 -109 403 -96 q 393 -131 393 -121 q 399 -150 393 -144 q 419 -155 405 -155 l 463 -155 l 463 -273 l 354 -273 q 295 -260 311 -273 q 279 -214 279 -248 q 287 -174 279 -193 q 317 -126 294 -155 l 411 0 l 457 0 z "},"ˇ":{"ha":694,"x_min":134,"x_max":561,"o":"m 134 1050 l 228 1050 l 347 901 l 465 1050 l 561 1050 l 428 799 l 267 799 l 134 1050 z "},"Ł":{"ha":857,"x_min":7,"x_max":838,"o":"m 113 0 l 113 354 l 7 281 l 7 457 l 113 532 l 113 1010 l 385 1010 l 385 692 l 611 848 l 611 672 l 385 515 l 385 235 l 838 235 l 838 0 l 113 0 z "},"ł":{"ha":436,"x_min":7,"x_max":443,"o":"m 110 0 l 110 399 l 7 329 l 7 446 l 110 513 l 110 1010 l 339 1010 l 339 636 l 443 705 l 443 590 l 339 522 l 339 0 l 110 0 z "},"Š":{"ha":962,"x_min":58,"x_max":904,"o":"m 58 313 l 318 313 l 318 302 q 347 226 318 248 q 450 204 376 204 l 518 204 q 605 221 580 204 q 629 279 629 237 l 629 323 q 610 375 629 359 q 521 399 590 391 l 301 422 q 122 499 178 436 q 65 688 65 563 l 65 750 q 87 876 65 821 q 153 966 110 931 q 241 1009 189 997 q 397 1022 294 1022 l 559 1022 q 791 961 711 1022 q 871 785 871 900 l 871 715 l 611 715 l 611 726 q 590 789 611 772 q 513 807 568 807 l 450 807 q 362 792 386 807 q 338 739 338 777 l 338 697 q 447 629 338 642 l 447 629 l 647 607 q 840 531 777 592 q 904 361 904 471 l 904 264 q 826 63 904 138 q 616 -12 748 -12 l 396 -12 q 139 49 219 -12 q 58 243 58 110 l 58 313 m 269 1345 l 363 1345 l 482 1197 l 600 1345 l 696 1345 l 563 1095 l 401 1095 l 269 1345 z "},"š":{"ha":793,"x_min":57,"x_max":736,"o":"m 57 204 l 292 204 q 317 150 298 165 q 386 135 336 135 l 416 135 q 490 150 470 135 q 510 204 510 165 q 491 256 510 241 q 414 277 473 271 l 268 290 q 120 350 175 299 q 65 475 65 400 l 65 532 q 133 675 65 626 q 332 724 201 724 l 472 724 q 654 677 593 724 q 715 538 715 631 l 715 522 l 490 522 q 468 566 489 552 q 404 581 448 581 l 375 581 q 309 565 328 581 q 289 513 289 549 q 303 469 289 482 q 355 453 317 456 l 517 437 q 682 385 629 427 q 736 264 736 342 l 736 203 q 668 47 736 104 q 481 -9 600 -9 l 329 -9 q 124 41 191 -9 q 57 195 57 91 l 57 204 m 184 1050 l 278 1050 l 397 901 l 515 1050 l 611 1050 l 478 799 l 317 799 l 184 1050 z "},"Ž":{"ha":971,"x_min":64,"x_max":890,"o":"m 64 0 l 64 236 l 547 775 l 94 775 l 94 1010 l 890 1010 l 890 768 l 419 235 l 890 235 l 890 0 l 64 0 m 273 1345 l 367 1345 l 486 1197 l 604 1345 l 700 1345 l 567 1095 l 406 1095 l 273 1345 z "},"ž":{"ha":751,"x_min":66,"x_max":688,"o":"m 66 0 l 66 192 l 407 545 l 87 545 l 87 714 l 677 714 l 677 522 l 345 172 l 688 172 l 688 0 l 66 0 m 163 1050 l 257 1050 l 376 901 l 494 1050 l 590 1050 l 457 799 l 296 799 l 163 1050 z "},"¦":{"ha":694,"x_min":278,"x_max":418,"o":"m 278 277 l 418 277 l 418 -237 l 278 -237 l 278 277 m 278 971 l 418 971 l 418 457 l 278 457 l 278 971 z "},"Ð":{"ha":1080,"x_min":7,"x_max":1010,"o":"m 110 0 l 110 439 l 7 439 l 7 585 l 110 585 l 110 1010 l 623 1010 q 923 920 836 1010 q 1010 607 1010 831 l 1010 403 q 923 90 1010 179 q 623 0 836 0 l 110 0 m 379 225 l 582 225 q 704 258 675 225 q 733 421 733 292 l 733 587 q 704 751 733 717 q 582 785 674 785 l 379 785 l 379 585 l 555 585 l 555 439 l 379 439 l 379 225 z "},"ð":{"ha":790,"x_min":64,"x_max":728,"o":"m 479 1010 l 514 961 l 640 1000 l 668 908 l 572 878 l 600 838 q 697 649 667 743 q 728 441 728 554 l 728 283 q 664 56 728 122 q 443 -9 600 -9 l 347 -9 q 127 56 191 -9 q 64 283 64 121 l 64 431 q 122 651 64 581 q 302 722 180 722 q 414 702 372 722 q 493 631 456 681 q 443 727 471 678 q 383 823 416 775 l 176 758 l 149 850 l 329 905 l 264 1010 l 479 1010 m 296 414 l 296 300 q 313 184 296 207 q 382 161 330 161 l 410 161 q 477 184 460 161 q 494 300 494 206 l 494 414 q 477 529 494 506 q 410 553 460 553 l 382 553 q 313 530 330 553 q 296 414 296 507 z "},"Ý":{"ha":957,"x_min":-3,"x_max":961,"o":"m -3 1010 l 302 1010 l 482 621 l 659 1010 l 961 1010 l 615 354 l 615 0 l 345 0 l 345 354 l -3 1010 m 678 1345 l 466 1095 l 370 1095 l 503 1345 l 678 1345 z "},"ý":{"ha":758,"x_min":8,"x_max":745,"o":"m 207 8 l 8 714 l 244 714 l 382 183 l 501 714 l 745 714 l 521 -93 q 440 -237 492 -198 q 289 -275 389 -275 q 183 -269 258 -275 q 165 -267 171 -267 l 165 -107 l 215 -107 q 275 -89 248 -107 q 309 -46 302 -71 l 322 8 l 207 8 m 578 1050 l 366 799 l 269 799 l 403 1050 l 578 1050 z "},"Þ":{"ha":999,"x_min":103,"x_max":949,"o":"m 374 648 l 374 358 l 562 358 q 650 382 628 358 q 672 479 672 406 l 672 536 q 644 622 672 596 q 551 648 616 648 l 374 648 m 103 1010 l 374 1010 l 374 875 l 576 875 q 862 796 776 875 q 949 538 949 718 l 949 471 q 863 213 949 291 q 576 135 777 135 l 374 135 l 374 0 l 103 0 l 103 1010 z "},"þ":{"ha":815,"x_min":100,"x_max":750,"o":"m 326 412 l 326 302 q 345 195 326 220 q 410 170 363 170 l 436 170 q 502 195 484 170 q 519 302 519 220 l 519 412 q 502 520 519 495 q 436 546 484 546 l 410 546 q 345 520 363 546 q 326 412 326 495 m 100 1010 l 326 1010 l 326 625 q 398 699 350 675 q 521 724 446 724 q 694 652 637 724 q 750 431 750 580 l 750 283 q 694 62 750 134 q 521 -9 637 -9 q 398 14 446 -9 q 326 87 350 38 l 326 -273 l 100 -273 l 100 1010 z "},"−":{"ha":1157,"x_min":172,"x_max":985,"o":"m 172 484 l 985 484 l 985 346 l 172 346 l 172 484 z "},"×":{"ha":1157,"x_min":187,"x_max":989,"o":"m 282 815 l 587 510 l 893 815 l 989 721 l 684 414 l 989 109 l 893 14 l 587 319 l 282 14 l 187 109 l 493 414 l 187 721 l 282 815 z "},"¹":{"ha":640,"x_min":75,"x_max":501,"o":"m 75 831 l 304 1010 l 501 1010 l 501 404 l 334 404 l 334 856 l 176 728 l 75 831 z "},"²":{"ha":640,"x_min":60,"x_max":583,"o":"m 60 404 l 60 549 q 87 653 60 613 q 168 707 114 692 l 363 760 q 403 779 393 768 q 414 811 414 789 l 414 836 q 397 882 414 869 q 336 895 380 895 l 307 895 q 247 882 264 895 q 231 836 231 869 l 231 802 l 66 802 l 66 856 q 120 976 66 935 q 273 1018 174 1018 l 371 1018 q 527 976 470 1018 q 583 860 583 933 l 583 810 q 553 702 583 743 q 461 647 522 662 l 273 602 q 242 587 250 595 q 233 562 234 579 l 233 539 l 578 539 l 578 404 l 60 404 z "},"³":{"ha":640,"x_min":53,"x_max":582,"o":"m 53 608 l 221 608 l 221 579 q 239 533 221 547 q 300 519 258 519 l 330 519 q 389 533 370 519 q 408 575 408 547 l 408 597 q 390 640 408 627 q 330 653 372 653 l 277 653 l 277 775 l 329 775 q 382 788 365 775 q 400 828 400 801 l 400 844 q 384 883 400 871 q 330 896 367 896 l 301 896 q 247 882 263 896 q 231 836 231 868 l 231 815 l 64 815 l 64 857 q 120 977 64 935 q 282 1018 176 1018 l 354 1018 q 516 979 460 1018 q 572 865 572 940 l 572 827 q 547 755 572 783 q 472 718 522 728 q 556 674 530 703 q 582 595 582 644 l 582 550 q 526 437 582 477 q 367 397 469 397 l 265 397 q 110 439 166 397 q 53 553 53 480 l 53 608 z "},"¼":{"ha":1455,"x_min":72,"x_max":1428,"o":"m 1014 222 l 1193 222 l 1193 447 l 1014 222 m 873 109 l 873 257 l 1124 566 l 1353 566 l 1353 222 l 1428 222 l 1428 109 l 1353 109 l 1353 0 l 1193 0 l 1193 109 l 873 109 m 379 -12 l 960 1022 l 1074 1022 l 493 -12 l 379 -12 m 72 843 l 290 1010 l 478 1010 l 478 444 l 318 444 l 318 865 l 168 747 l 72 843 z "},"½":{"ha":1455,"x_min":72,"x_max":1400,"o":"m 900 0 l 900 135 q 926 232 900 195 q 1003 282 951 269 l 1189 332 q 1228 350 1218 340 q 1238 380 1238 360 l 1238 403 q 1221 446 1238 434 q 1164 458 1205 458 l 1136 458 q 1080 446 1096 458 q 1064 403 1064 433 l 1064 371 l 905 371 l 905 422 q 957 534 905 495 q 1104 572 1008 572 l 1197 572 q 1346 533 1292 572 q 1400 425 1400 494 l 1400 379 q 1371 278 1400 317 q 1283 227 1341 240 l 1103 183 q 1074 171 1081 178 q 1067 147 1067 163 l 1067 125 l 1396 125 l 1396 0 l 900 0 m 379 -12 l 960 1022 l 1074 1022 l 493 -12 l 379 -12 m 72 843 l 290 1010 l 478 1010 l 478 444 l 318 444 l 318 865 l 168 747 l 72 843 z "},"¾":{"ha":1455,"x_min":50,"x_max":1428,"o":"m 1014 222 l 1193 222 l 1193 447 l 1014 222 m 873 109 l 873 257 l 1124 566 l 1353 566 l 1353 222 l 1428 222 l 1428 109 l 1353 109 l 1353 0 l 1193 0 l 1193 109 l 873 109 m 379 -12 l 960 1022 l 1074 1022 l 493 -12 l 379 -12 m 50 635 l 211 635 l 211 608 q 229 566 211 578 q 286 553 246 553 l 315 553 q 372 565 353 553 q 390 604 390 578 l 390 625 q 372 664 390 652 q 315 676 355 676 l 264 676 l 264 790 l 314 790 q 365 802 349 790 q 382 840 382 814 l 382 856 q 366 891 382 880 q 315 903 350 903 l 288 903 q 236 890 252 903 q 220 848 220 878 l 220 829 l 60 829 l 60 867 q 114 978 60 939 q 268 1017 168 1017 l 338 1017 q 493 981 439 1017 q 546 875 546 945 l 546 838 q 522 772 546 798 q 450 737 497 747 q 530 697 505 724 q 555 623 555 669 l 555 581 q 502 475 555 513 q 350 437 448 437 l 254 437 q 104 476 159 437 q 50 583 50 515 l 50 635 z "},"₣":{"ha":1554,"x_min":103,"x_max":1533,"o":"m 103 0 l 103 1010 l 782 1010 l 782 785 l 374 785 l 374 589 l 758 589 l 758 367 l 374 367 l 374 0 l 103 0 m 951 0 l 951 714 l 1171 714 l 1168 612 q 1236 697 1195 671 q 1341 724 1276 724 q 1491 669 1449 724 q 1533 464 1533 614 l 1533 400 l 1320 400 l 1320 446 q 1305 517 1320 497 q 1250 538 1290 538 q 1193 514 1208 538 q 1177 400 1177 490 l 1177 0 l 951 0 z "},"Ğ":{"ha":1044,"x_min":71,"x_max":975,"o":"m 975 694 l 705 694 q 670 763 703 742 q 561 785 636 785 l 493 785 q 370 751 400 785 q 340 587 340 717 l 340 421 q 370 259 340 293 q 493 225 400 225 l 568 225 q 680 248 648 225 q 711 325 711 270 l 711 364 l 557 364 l 557 553 l 975 553 l 975 380 q 885 82 975 176 q 602 -12 795 -12 l 418 -12 q 159 96 247 -12 q 71 415 71 204 l 71 568 q 163 913 71 804 q 457 1022 256 1022 l 604 1022 q 871 941 767 1022 q 975 737 975 860 l 975 694 m 313 1322 l 396 1322 q 430 1246 400 1270 q 522 1222 460 1222 q 613 1246 583 1222 q 647 1322 643 1270 l 730 1322 q 673 1166 723 1216 q 522 1116 623 1116 q 371 1166 422 1116 q 313 1322 320 1217 z "},"ğ":{"ha":811,"x_min":68,"x_max":718,"o":"m 298 411 l 298 301 q 317 193 298 218 q 386 168 336 168 l 414 168 q 482 193 463 168 q 501 301 501 218 l 501 411 q 482 519 501 494 q 414 545 463 545 l 386 545 q 317 519 336 545 q 298 411 298 494 m 718 714 l 718 46 q 703 -116 718 -64 q 650 -204 687 -168 q 561 -254 618 -235 q 443 -273 505 -273 l 366 -273 q 167 -227 235 -273 q 100 -89 100 -180 l 100 -49 l 318 -49 q 333 -97 318 -83 q 386 -111 348 -111 l 419 -111 q 484 -87 467 -111 q 501 11 501 -62 l 501 115 q 429 40 477 64 q 297 17 380 17 q 123 82 179 17 q 68 288 68 148 l 68 431 q 125 653 68 582 q 304 724 182 724 q 420 699 372 724 q 492 625 469 673 l 492 714 l 718 714 m 196 1026 l 279 1026 q 314 950 283 975 q 406 926 344 926 q 496 950 467 926 q 530 1026 526 974 l 614 1026 q 556 870 606 920 q 406 821 506 821 q 255 871 306 821 q 196 1026 203 921 z "},"İ":{"ha":494,"x_min":111,"x_max":385,"o":"m 111 0 l 111 1010 l 385 1010 l 385 0 l 111 0 m 168 1131 l 168 1305 l 328 1305 l 328 1131 l 168 1131 z "},"Ş":{"ha":962,"x_min":58,"x_max":904,"o":"m 58 313 l 318 313 l 318 302 q 347 226 318 248 q 450 204 376 204 l 518 204 q 605 221 580 204 q 629 279 629 237 l 629 323 q 610 375 629 359 q 521 399 590 391 l 301 422 q 122 499 178 436 q 65 688 65 563 l 65 750 q 87 876 65 821 q 153 966 110 931 q 241 1009 189 997 q 397 1022 294 1022 l 559 1022 q 791 961 711 1022 q 871 785 871 900 l 871 715 l 611 715 l 611 726 q 590 789 611 772 q 513 807 568 807 l 450 807 q 362 792 386 807 q 338 739 338 777 l 338 697 q 447 629 338 642 l 447 629 l 647 607 q 840 531 777 592 q 904 361 904 471 l 904 264 q 826 63 904 138 q 616 -12 748 -12 l 396 -12 q 139 49 219 -12 q 58 243 58 110 l 58 313 m 349 -326 l 349 -239 l 511 -239 q 556 -228 544 -239 q 568 -189 568 -218 q 556 -154 568 -164 q 515 -143 544 -143 l 448 -143 l 448 0 l 517 0 l 517 -66 l 584 -66 q 661 -97 636 -66 q 686 -191 686 -127 q 650 -298 686 -269 q 507 -326 613 -326 l 349 -326 z "},"ş":{"ha":793,"x_min":57,"x_max":736,"o":"m 57 204 l 292 204 q 317 150 298 165 q 386 135 336 135 l 416 135 q 490 150 470 135 q 510 204 510 165 q 491 256 510 241 q 414 277 473 271 l 268 290 q 120 350 175 299 q 65 475 65 400 l 65 532 q 133 675 65 626 q 332 724 201 724 l 472 724 q 654 677 593 724 q 715 538 715 631 l 715 522 l 490 522 q 468 566 489 552 q 404 581 448 581 l 375 581 q 309 565 328 581 q 289 513 289 549 q 303 469 289 482 q 355 453 317 456 l 517 437 q 682 385 629 427 q 736 264 736 342 l 736 203 q 668 47 736 104 q 481 -9 600 -9 l 329 -9 q 124 41 191 -9 q 57 195 57 91 l 57 204 m 264 -326 l 264 -239 l 427 -239 q 471 -228 459 -239 q 484 -189 484 -218 q 471 -154 484 -164 q 431 -143 459 -143 l 363 -143 l 363 0 l 432 0 l 432 -66 l 499 -66 q 576 -97 551 -66 q 602 -191 602 -127 q 565 -298 602 -269 q 422 -326 528 -326 l 264 -326 z "},"Ć":{"ha":981,"x_min":71,"x_max":920,"o":"m 920 389 l 920 359 q 833 75 920 162 q 549 -12 746 -12 l 457 -12 q 157 79 243 -12 q 71 400 71 170 l 71 610 q 157 931 71 840 q 457 1022 243 1022 l 532 1022 q 829 942 745 1022 q 913 660 913 862 l 913 640 l 643 640 l 643 659 q 611 756 643 728 q 500 785 579 785 q 383 751 412 785 q 354 587 354 717 l 354 421 q 383 259 354 292 q 500 225 412 225 q 613 256 582 225 q 644 366 644 287 l 644 389 l 920 389 m 689 1345 l 477 1095 l 380 1095 l 514 1345 l 689 1345 z "},"ć":{"ha":786,"x_min":64,"x_max":728,"o":"m 726 282 q 727 266 726 277 q 728 249 728 254 q 663 50 728 110 q 443 -9 597 -9 l 347 -9 q 127 56 191 -9 q 64 283 64 121 l 64 431 q 127 658 64 593 q 347 724 191 724 l 443 724 q 661 665 596 724 q 726 468 726 606 l 726 449 l 498 449 l 498 456 q 480 532 498 511 q 412 553 461 553 l 382 553 q 313 530 330 553 q 296 414 296 507 l 296 300 q 313 184 296 207 q 382 161 330 161 l 412 161 q 480 183 462 161 q 498 265 498 205 l 498 282 l 726 282 m 592 1050 l 380 799 l 283 799 l 417 1050 l 592 1050 z "},"Č":{"ha":981,"x_min":71,"x_max":920,"o":"m 920 389 l 920 359 q 833 75 920 162 q 549 -12 746 -12 l 457 -12 q 157 79 243 -12 q 71 400 71 170 l 71 610 q 157 931 71 840 q 457 1022 243 1022 l 532 1022 q 829 942 745 1022 q 913 660 913 862 l 913 640 l 643 640 l 643 659 q 611 756 643 728 q 500 785 579 785 q 383 751 412 785 q 354 587 354 717 l 354 421 q 383 259 354 292 q 500 225 412 225 q 613 256 582 225 q 644 366 644 287 l 644 389 l 920 389 m 277 1345 l 371 1345 l 490 1197 l 608 1345 l 704 1345 l 571 1095 l 410 1095 l 277 1345 z "},"č":{"ha":786,"x_min":64,"x_max":728,"o":"m 726 282 q 727 266 726 277 q 728 249 728 254 q 663 50 728 110 q 443 -9 597 -9 l 347 -9 q 127 56 191 -9 q 64 283 64 121 l 64 431 q 127 658 64 593 q 347 724 191 724 l 443 724 q 661 665 596 724 q 726 468 726 606 l 726 449 l 498 449 l 498 456 q 480 532 498 511 q 412 553 461 553 l 382 553 q 313 530 330 553 q 296 414 296 507 l 296 300 q 313 184 296 207 q 382 161 330 161 l 412 161 q 480 183 462 161 q 498 265 498 205 l 498 282 l 726 282 m 180 1050 l 274 1050 l 393 901 l 511 1050 l 607 1050 l 474 799 l 313 799 l 180 1050 z "},"đ":{"ha":821,"x_min":64,"x_max":815,"o":"m 406 545 l 379 545 q 314 520 332 545 q 296 411 296 495 l 296 301 q 314 193 296 218 q 379 168 332 168 l 406 168 q 470 192 452 168 q 488 301 488 216 l 488 411 q 470 520 488 496 q 406 545 452 545 m 715 1010 l 715 916 l 815 916 l 815 819 l 715 819 l 715 0 l 494 0 l 497 102 q 420 17 467 43 q 301 -9 374 -9 q 121 61 179 -9 q 64 283 64 132 l 64 431 q 121 653 64 582 q 301 724 179 724 q 417 699 370 724 q 488 625 465 673 l 488 819 l 296 819 l 296 916 l 488 916 l 488 1010 l 715 1010 z "},"­":{"ha":467,"x_min":31,"x_max":436,"o":"m 31 264 l 31 469 l 436 469 l 436 264 l 31 264 z "},"∙":{"ha":486,"x_min":114,"x_max":371,"o":"m 114 514 q 151 606 114 570 q 244 643 188 643 q 336 607 300 643 q 371 514 371 570 q 336 423 371 460 q 249 386 300 386 q 151 421 189 386 q 114 514 114 457 z "},"":{"ha":971,"x_min":22,"x_max":900,"o":"m 900 277 q 819 55 900 121 q 553 -12 737 -12 l 476 -12 q 208 72 288 -12 q 123 364 129 157 l 22 364 l 49 443 l 123 443 l 123 567 l 22 567 l 47 646 l 123 646 q 208 938 129 853 q 476 1022 288 1022 l 546 1022 q 812 955 730 1022 q 893 733 893 888 l 893 714 l 647 714 l 647 732 q 615 798 647 777 q 517 819 583 819 q 411 787 438 819 q 383 646 385 755 l 704 646 l 679 567 l 383 567 l 383 443 l 639 443 l 612 364 l 383 363 q 411 222 385 254 q 517 191 438 191 q 616 212 583 191 q 648 278 648 234 l 648 296 l 900 296 l 900 277 z "},"€":{"ha":971,"x_min":22,"x_max":900,"o":"m 900 277 q 819 55 900 121 q 553 -12 737 -12 l 476 -12 q 208 72 288 -12 q 123 364 129 157 l 22 364 l 49 443 l 123 443 l 123 567 l 22 567 l 47 646 l 123 646 q 208 938 129 853 q 476 1022 288 1022 l 546 1022 q 812 955 730 1022 q 893 733 893 888 l 893 714 l 647 714 l 647 732 q 615 798 647 777 q 517 819 583 819 q 411 787 438 819 q 383 646 385 755 l 704 646 l 679 567 l 383 567 l 383 443 l 639 443 l 612 364 l 383 363 q 411 222 385 254 q 517 191 438 191 q 616 212 583 191 q 648 278 648 234 l 648 296 l 900 296 l 900 277 z "}}}
